

<svg
   width="33.86665mm"
   height="71.052055mm"
   viewBox="0 0 33.86665 71.052056"
   version="1.1"
   inkscape:version="1.1.2 (0a00cf5339, 2022-02-04)"
   sodipodi:docname="tree-3.svg"
   xmlns:inkscape="http://www.inkscape.org/namespaces/inkscape"
   xmlns:sodipodi="http://sodipodi.sourceforge.net/DTD/sodipodi-0.dtd"
   xmlns="http://www.w3.org/2000/svg"
   xmlns:svg="http://www.w3.org/2000/svg">
  <sodipodi:namedview
     pagecolor="#ffffff"
     bordercolor="#666666"
     borderopacity="1.0"
     inkscape:pageshadow="2"
     inkscape:pageopacity="0.0"
     inkscape:pagecheckerboard="0"
     inkscape:document-units="mm"
     showgrid="false"
     fit-margin-top="0"
     fit-margin-left="0"
     fit-margin-right="0"
     fit-margin-bottom="0"
     inkscape:zoom="0.57370932"
     inkscape:cx="7.8436935"
     inkscape:cy="679.78677"
     inkscape:window-width="1920"
     inkscape:window-height="1051"
     inkscape:window-x="900"
     inkscape:window-y="900"
     inkscape:window-maximized="1"
     inkscape:current-layer="layer1" />
  <defs
      />
  <g
     inkscape:label="Layer 1"
     inkscape:groupmode="layer"
     transform="translate(44.247652,179.00483)">
    <path
       d="m -27.693296,-108.00468 c -0.145626,-0.0546 -0.205654,-0.10292 -0.248522,-0.20014 -0.0062,-0.0142 -0.183883,0.001 -0.394761,0.0343 -0.414241,0.0648 -1.113009,0.0514 -1.31052,-0.0251 -0.14224,-0.0551 -0.222682,-0.21407 -0.184767,-0.36513 0.03089,-0.12307 0.03685,-0.12598 0.650268,-0.31718 0.598783,-0.18666 1.246521,-0.51158 1.508654,-0.75677 0.212067,-0.19837 0.495242,-0.6201 0.844992,-1.25845 l 0.179956,-0.32846 -0.0084,-1.71642 -0.0084,-1.71643 0.113262,-0.44469 c 0.06229,-0.24458 0.130512,-0.628 0.151613,-0.85203 0.02109,-0.22403 0.05096,-1.86989 0.06637,-3.65744 0.03174,-3.6812 0.05494,-3.41888 -0.310357,-3.5079 -0.158859,-0.0387 -0.248953,-0.0997 -0.424471,-0.28714 l -0.222815,-0.23798 0.02621,0.22125 c 0.02212,0.18681 0.0082,0.25803 -0.08936,0.45745 -0.06356,0.12991 -0.176384,0.28237 -0.25071,0.33878 -0.229614,0.17428 -0.759843,0.43889 -1.066223,0.5321 -0.471266,0.14337 -0.63384,0.12421 -1.087275,-0.12811 -0.406372,-0.22614 -0.495094,-0.32027 -0.462517,-0.4907 0.01069,-0.0559 -0.0019,-0.13006 -0.0279,-0.16476 -0.04165,-0.0555 -0.09151,-0.0541 -0.415321,0.012 l -0.367983,0.0751 0.07864,0.1477 c 0.157963,0.29667 0.06707,0.5198 -0.303629,0.74535 -0.235555,0.14334 -0.258871,0.17345 -0.404604,0.52273 -0.188147,0.45095 -0.808066,0.72746 -1.226692,0.54716 -0.07383,-0.0318 -0.285821,-0.0933 -0.471085,-0.13661 -0.189426,-0.0443 -0.413163,-0.13052 -0.511218,-0.19701 -0.143727,-0.0975 -0.220823,-0.11837 -0.438627,-0.11901 -0.351388,-10e-4 -0.470051,-0.0599 -0.531064,-0.26358 -0.03744,-0.12494 -0.03663,-0.23145 0.0034,-0.45095 0.04848,-0.26578 0.0458,-0.30007 -0.0358,-0.45614 -0.04853,-0.0928 -0.08822,-0.23145 -0.08822,-0.30806 0,-0.15241 -0.0088,-0.15685 -0.401945,-0.20232 -0.115637,-0.0134 -0.251491,-0.0513 -0.301903,-0.0844 -0.09493,-0.0622 -0.192248,-0.32874 -0.275734,-0.7552 -0.04064,-0.20757 -0.0647,-0.24796 -0.174875,-0.2936 -0.07026,-0.0291 -0.179468,-0.10771 -0.242691,-0.17468 -0.0939,-0.0995 -0.15061,-0.12179 -0.310002,-0.12179 -0.218288,0 -0.347681,0.10098 -0.397117,0.30994 -0.0341,0.14412 -0.304361,0.45153 -0.443464,0.50441 -0.05579,0.0212 -0.248238,0.0686 -0.427666,0.10526 -0.179424,0.0367 -0.472416,0.13233 -0.651102,0.21256 -0.401733,0.18039 -0.633419,0.1926 -0.784703,0.0413 -0.05751,-0.0575 -0.10456,-0.14937 -0.10456,-0.20414 0,-0.0615 -0.06927,-0.16605 -0.181056,-0.27337 -0.268798,-0.25803 -0.319459,-0.27581 -0.447543,-0.1571 -0.173797,0.16107 -0.360107,0.13555 -0.590612,-0.0809 -0.324402,-0.30462 -0.686422,-0.77191 -0.735804,-0.94977 -0.103629,-0.37327 -0.02084,-0.7321 0.194338,-0.8423 0.06629,-0.0339 0.235542,-0.0975 0.376127,-0.14128 0.184385,-0.0574 0.31329,-0.13503 0.462622,-0.2786 0.113866,-0.10946 0.19854,-0.22448 0.188161,-0.2556 -0.01195,-0.0358 -0.09056,-0.057 -0.21449,-0.0578 -0.13368,-8.2e-4 -0.225056,-0.0278 -0.288536,-0.0852 -0.0759,-0.0686 -0.15428,-0.084 -0.428004,-0.084 -0.290702,0 -0.347788,-0.0127 -0.430958,-0.0959 -0.07999,-0.08 -0.09606,-0.14304 -0.09705,-0.3807 -0.0011,-0.28206 -0.0025,-0.28517 -0.132508,-0.31887 -0.125515,-0.0325 -0.230781,-0.17426 -0.230781,-0.31068 0,-0.0321 0.0671,-0.18483 0.149106,-0.33942 0.233549,-0.44025 0.195332,-0.57805 -0.160315,-0.57805 -0.145777,0 -0.290933,0.0404 -0.489829,0.13632 -0.246255,0.11877 -0.326958,0.13633 -0.626589,0.13633 -0.270054,0 -0.386653,-0.0207 -0.542823,-0.0963 -0.374663,-0.18137 -0.479041,-0.65803 -0.244697,-1.11738 0.08903,-0.17451 0.09013,-0.18757 0.01924,-0.2291 -0.04135,-0.0242 -0.132411,-0.0908 -0.202357,-0.14795 -0.123594,-0.10098 -0.126642,-0.11241 -0.107867,-0.40471 0.01062,-0.16544 0.05153,-0.3679 0.0909,-0.44991 0.08136,-0.16947 0.436901,-0.44878 0.623406,-0.48975 0.06859,-0.0151 0.135656,-0.0619 0.149031,-0.104 0.01337,-0.0421 -0.02631,-0.23687 -0.08819,-0.43274 -0.143932,-0.45562 -0.132824,-0.89936 0.03043,-1.21661 0.135443,-0.26318 0.284383,-0.34597 0.746916,-0.41517 0.291514,-0.0436 0.42491,-0.0875 0.589739,-0.1938 0.208414,-0.13448 0.220804,-0.13691 0.57512,-0.11267 0.411531,0.0282 0.527926,-0.009 0.417273,-0.13192 -0.180036,-0.20057 -0.130671,-0.48857 0.140337,-0.81881 0.115743,-0.14103 0.117199,-0.14904 0.05051,-0.27691 -0.183044,-0.35093 -0.141184,-0.79209 0.09482,-0.9993 0.07851,-0.069 0.200822,-0.1381 0.271798,-0.15369 0.08086,-0.0178 0.139538,-0.063 0.157164,-0.12123 0.03602,-0.11896 0.185836,-0.28478 0.294306,-0.32575 0.07681,-0.029 0.07256,-0.0379 -0.04784,-0.10014 -0.138789,-0.0718 -0.183986,-0.17066 -0.184953,-0.40468 -7.14e-4,-0.1806 0.05962,-0.29831 0.227377,-0.44337 0.175944,-0.15214 0.100318,-0.14781 -0.325188,0.0187 -0.389897,0.15253 -0.619821,0.16891 -0.831542,0.0592 -0.143323,-0.0742 -0.152788,-0.0882 -0.197001,-0.29039 -0.0178,-0.0814 -0.09342,-0.15688 -0.256017,-0.25561 -0.126921,-0.0771 -0.385544,-0.25078 -0.574725,-0.38604 -0.306137,-0.21887 -0.343963,-0.26077 -0.343963,-0.38093 0,-0.13615 0.272481,-0.64796 0.402353,-0.75575 0.101414,-0.0842 0.08072,-0.24344 -0.0429,-0.33012 -0.337702,-0.23678 -0.35945,-0.26605 -0.35945,-0.48356 0,-0.17078 0.02308,-0.23404 0.129783,-0.35556 0.07139,-0.0813 0.210376,-0.17924 0.308861,-0.21764 0.137151,-0.0535 0.199029,-0.11095 0.264281,-0.2455 0.140336,-0.2894 0.260357,-0.34828 0.744,-0.36504 l 0.418489,-0.0145 -0.05911,-0.11331 c -0.07819,-0.14984 -0.07584,-0.53353 0.0042,-0.68833 0.0959,-0.18546 0.314559,-0.33047 0.61395,-0.40717 0.240885,-0.0617 0.288066,-0.0622 0.462302,-0.005 0.131794,0.0434 0.226467,0.0515 0.295157,0.0254 0.09534,-0.0362 0.09763,-0.0452 0.03991,-0.15613 -0.07592,-0.14595 -0.218643,-0.27801 -0.398865,-0.36909 -0.175022,-0.0885 -0.200547,-0.19307 -0.164282,-0.67345 0.03286,-0.43525 0.09291,-0.56026 0.306167,-0.63738 0.166856,-0.0603 0.16892,-0.0676 0.07517,-0.2642 -0.103926,-0.21793 -0.215484,-0.26142 -0.535901,-0.20895 -0.147144,0.0241 -0.329332,0.0345 -0.404857,0.0232 -0.126526,-0.0191 -0.352603,-0.19161 -0.352603,-0.26913 0,-0.0183 -0.09585,-0.10353 -0.213008,-0.18953 -0.205836,-0.1511 -0.213007,-0.16346 -0.213007,-0.36711 0,-0.11591 0.02876,-0.27957 0.0639,-0.36368 0.03515,-0.0841 0.06397,-0.26083 0.06406,-0.3927 0,-0.30673 0.108918,-0.49298 0.35219,-0.60341 0.227532,-0.10329 0.383698,-0.10414 0.705952,-0.004 l 0.25647,0.0798 0.05239,-0.12648 c 0.04637,-0.11194 0.03937,-0.15218 -0.06096,-0.35033 -0.06235,-0.12312 -0.113351,-0.25549 -0.113351,-0.29416 0,-0.1236 0.157062,-0.23312 0.466505,-0.32527 0.266561,-0.0794 0.296471,-0.0986 0.259803,-0.16714 -0.05648,-0.10555 -0.226791,-0.16354 -0.555423,-0.18914 -0.230957,-0.018 -0.292268,-0.0399 -0.372763,-0.13353 -0.1248,-0.14509 -0.12938,-0.47761 -0.01019,-0.74027 0.09848,-0.21705 0.10954,-0.42498 0.02433,-0.45768 -0.03296,-0.0126 -0.148653,0.007 -0.257092,0.0439 -0.277478,0.0942 -0.55824,0.0859 -0.7324,-0.0218 -0.194485,-0.1202 -0.217081,-0.24732 -0.104826,-0.58974 0.09442,-0.28804 0.08908,-0.40377 -0.02058,-0.44585 -0.04569,-0.0175 -0.06061,-0.11051 -0.06061,-0.37776 0,-0.59847 0.151613,-1.00689 0.481215,-1.29627 0.215014,-0.18879 0.411362,-0.24161 0.799356,-0.21501 l 0.329372,0.0226 0.02403,-0.12013 c 0.02429,-0.12146 0.455198,-0.63307 0.686359,-0.8149 0.09903,-0.0779 0.182748,-0.0998 0.396692,-0.10395 0.185525,-0.004 0.292571,-0.0266 0.338926,-0.073 0.06194,-0.0619 0.05654,-0.0782 -0.06288,-0.18978 -0.307552,-0.2873 -0.181008,-0.9538 0.222344,-1.17106 0.241511,-0.13008 0.318283,-0.12733 1.478522,0.0529 0.241604,0.0375 0.546059,-0.008 0.546059,-0.0821 0,-0.0197 -0.02864,-0.0906 -0.06364,-0.15775 -0.130782,-0.25076 -0.05032,-0.42496 0.271638,-0.58811 0.362263,-0.18357 0.37255,-0.2555 0.128825,-0.90124 -0.124223,-0.32914 -0.131825,-0.37632 -0.08556,-0.53076 0.06999,-0.2336 0.265159,-0.44174 0.54056,-0.57648 0.196602,-0.0962 0.265168,-0.10922 0.447414,-0.085 l 0.215231,0.0286 -0.01365,-0.11735 c -0.01128,-0.0968 -0.04084,-0.12295 -0.169111,-0.14941 -0.36919,-0.0762 -0.717884,-0.35949 -0.717884,-0.58332 0,-0.0995 0.04558,-0.30132 0.151479,-0.67079 0.0411,-0.1434 -0.07959,-0.15304 -0.440317,-0.0351 -0.337072,0.11016 -0.459263,0.1089 -0.637745,-0.007 -0.07771,-0.0503 -0.09585,-0.10111 -0.09585,-0.26866 0,-0.11367 0.02862,-0.28781 0.06361,-0.38697 0.06766,-0.19177 0.05509,-0.26662 -0.03871,-0.23062 -0.103052,0.0395 -0.357667,-0.0997 -0.426797,-0.23335 -0.100042,-0.19346 -0.193198,-0.63374 -0.193907,-0.91646 -8.47e-4,-0.33994 0.06997,-0.5513 0.255889,-0.76364 0.319968,-0.36545 0.312992,-0.45214 -0.04494,-0.55843 -0.317386,-0.0943 -0.424578,-0.18131 -0.424578,-0.34482 0,-0.23611 0.225038,-0.39451 0.753892,-0.53066 0.214756,-0.0553 0.3445,-0.20545 0.382415,-0.44258 0.0341,-0.21318 0.162964,-0.34771 0.392236,-0.40945 l 0.175097,-0.0471 -0.01044,-0.27173 c -0.01291,-0.33603 0.05293,-0.42016 0.484433,-0.61905 0.271083,-0.12496 0.328133,-0.13593 0.63439,-0.12202 l 0.33652,0.0153 0.02745,-0.16245 c 0.01509,-0.0893 0.07204,-0.21405 0.126562,-0.27713 l 0.09912,-0.1147 0.583167,0.007 c 0.353699,0.004 0.601387,0.0252 0.629468,0.0533 0.08385,0.0838 0.0933,0.05 0.07956,-0.28514 -0.01807,-0.44058 0.03349,-0.49279 0.507855,-0.51434 l 0.336476,-0.0153 v -0.22652 c 0,-0.19614 0.01757,-0.24409 0.131076,-0.3576 0.0721,-0.0721 0.172744,-0.13134 0.223658,-0.13166 0.05092,-2.7e-4 0.133231,-0.0115 0.182911,-0.0248 l 0.09033,-0.0242 -0.107658,-0.30102 c -0.10748,-0.30052 -0.107533,-0.30138 -0.03197,-0.53964 0.04163,-0.13125 0.08201,-0.26166 0.08975,-0.28981 0.0077,-0.0282 -0.02314,-0.16234 -0.0686,-0.29821 -0.04546,-0.13587 -0.09366,-0.30326 -0.10713,-0.37197 -0.02256,-0.11509 -0.08476,-0.18385 -0.519525,-0.57419 -0.123527,-0.11091 -0.138406,-0.14881 -0.138042,-0.35162 7.14e-4,-0.36735 0.269343,-0.84724 0.557862,-0.99644 0.185171,-0.0958 0.195368,-0.2289 0.04255,-0.55546 -0.07272,-0.15539 -0.132211,-0.33936 -0.132211,-0.40883 0,-0.18613 0.184238,-0.34613 0.479041,-0.41603 0.223068,-0.0529 0.270959,-0.0504 0.540764,0.0283 0.257118,0.075 0.299232,0.078 0.32047,0.0226 0.01344,-0.035 0.0072,-0.0852 -0.01398,-0.11155 -0.0596,-0.0743 -0.100229,-0.31332 -0.06963,-0.40973 0.03667,-0.11554 0.307051,-0.24877 0.650854,-0.3207 0.1538,-0.0322 0.313991,-0.093 0.355984,-0.13528 0.12141,-0.1221 0.219381,-0.57798 0.186005,-0.86555 l -0.02867,-0.24701 0.184771,-0.10658 c 0.101635,-0.0586 0.299808,-0.12926 0.440393,-0.15698 0.30366,-0.0599 0.447316,-0.14189 0.447316,-0.25534 0,-0.0456 -0.05127,-0.19376 -0.113942,-0.32918 -0.162174,-0.35046 -0.15368,-0.50408 0.03701,-0.66891 0.08421,-0.0728 0.250995,-0.16755 0.370634,-0.21057 0.11963,-0.043 0.216921,-0.10026 0.216189,-0.12719 -7.15e-4,-0.0269 -0.04856,-0.12566 -0.106286,-0.21938 -0.05773,-0.0937 -0.105053,-0.22175 -0.105178,-0.2845 0,-0.0998 0.03016,-0.12546 0.241325,-0.20447 0.325311,-0.12171 0.779928,-0.21396 1.054468,-0.21396 0.192559,0 0.254224,0.022 0.423228,0.15106 0.108812,0.0831 0.197835,0.16935 0.197835,0.19171 0,0.0224 0.0264,0.0406 0.05865,0.0406 0.03226,0 0.09957,-0.10065 0.14958,-0.22366 0.188037,-0.46257 0.228624,-0.51929 0.402212,-0.56216 0.146545,-0.0362 0.16059,-0.0513 0.138166,-0.1491 -0.08363,-0.36458 -0.08236,-0.3769 0.05229,-0.51156 0.103069,-0.10307 0.166283,-0.12978 0.307113,-0.12978 0.159316,0 0.199677,0.0235 0.397342,0.23163 0.211588,0.22277 0.231877,0.23339 0.529922,0.27746 0.170447,0.0252 0.354788,0.0346 0.409643,0.0208 0.160549,-0.0403 0.457138,0.0632 0.605025,0.21105 0.140307,0.14031 0.272981,0.48858 0.272981,0.71659 0,0.077 0.02725,0.13119 0.07455,0.14819 0.146798,0.0527 0.219292,0.17911 0.284869,0.49659 0.09318,0.45112 0.08638,0.78818 -0.01861,0.9224 -0.107824,0.13785 -0.105948,0.17867 0.01339,0.29078 0.207671,0.1951 0.471913,0.0816 0.562837,-0.2418 0.03709,-0.13191 0.06407,-0.15747 0.177921,-0.1686 0.15662,-0.0153 0.425181,0.10974 0.680772,0.31696 0.282685,0.2292 0.365977,0.52489 0.503178,1.7864 0.03972,0.3652 0.05354,0.3781 0.292075,0.27258 0.110231,-0.0488 0.233444,-0.0771 0.273815,-0.063 0.09027,0.0315 0.414998,0.43237 0.524969,0.64807 0.0977,0.19163 0.106007,0.55521 0.01843,0.80654 -0.04481,0.12859 -0.05032,0.21558 -0.02048,0.32363 0.03944,0.1428 0.07569,0.18737 0.367438,0.4515 0.245598,0.22237 0.231279,0.62072 -0.03315,0.92189 l -0.128284,0.14611 0.183458,0.0469 c 0.376811,0.0963 0.409703,0.12116 0.479936,0.36277 0.08393,0.28869 0.08426,0.83741 6.62e-4,1.11887 -0.04903,0.1651 -0.109777,0.25548 -0.247681,0.36848 -0.232942,0.19088 -0.328055,0.35397 -0.239208,0.41018 0.03406,0.0215 0.136444,0.0395 0.227504,0.0398 0.14268,5.3e-4 0.189382,-0.0258 0.337831,-0.19105 0.107468,-0.1196 0.208398,-0.19171 0.268324,-0.19171 0.125562,0 0.325618,0.0771 0.366349,0.14112 0.06027,0.0948 0.0328,0.73103 -0.05266,1.21943 -0.0742,0.42405 -0.07892,0.53246 -0.03644,0.83614 0.06152,0.43978 0.02974,0.60769 -0.157436,0.83172 -0.08204,0.0982 -0.142112,0.19984 -0.133503,0.22587 0.0086,0.026 0.119793,0.0587 0.247053,0.0726 0.288478,0.0315 0.406674,0.10166 0.510811,0.30321 0.08902,0.17231 0.103811,0.35323 0.04215,0.51544 -0.03359,0.0883 -0.01807,0.12469 0.10358,0.2426 0.192577,0.18665 0.241983,0.41951 0.22593,1.06493 l -0.01309,0.52637 0.234309,0.12304 c 0.128869,0.0677 0.27317,0.15945 0.320683,0.20393 0.08533,0.0799 0.08779,0.0791 0.204173,-0.0668 0.188618,-0.23638 0.444033,-0.1948 0.915915,0.14911 0.181695,0.13242 0.183896,0.13709 0.173229,0.36732 -0.0079,0.17137 0.008,0.25196 0.06001,0.30399 0.066,0.066 0.09383,0.0471 0.410567,-0.27821 0.456143,-0.46858 0.523615,-0.46753 0.843445,0.0131 0.242006,0.36369 0.394946,0.68102 0.39456,0.81867 0,0.0652 -0.03586,0.26701 -0.07927,0.44844 -0.06603,0.27587 -0.06951,0.33769 -0.02128,0.37772 0.09747,0.0809 0.146674,0.34232 0.09777,0.51943 -0.06108,0.22121 -0.284614,0.36231 -0.642136,0.40536 -0.359751,0.0433 -0.845243,0.32074 -0.741988,0.42401 0.01692,0.0169 0.18192,0.0376 0.366657,0.046 0.190388,0.009 0.354208,0.0373 0.378172,0.0662 0.02324,0.028 0.0479,0.2122 0.05478,0.4093 l 0.01251,0.35837 0.29724,0.002 0.297253,0.002 0.102012,0.21301 c 0.176738,0.36904 0.203778,0.70145 0.09716,1.19416 -0.108131,0.49968 -0.213167,0.63381 -0.533992,0.68193 l -0.19305,0.029 0.06229,0.14907 c 0.03426,0.082 0.129738,0.24095 0.212172,0.35325 0.08243,0.1123 0.189802,0.29443 0.238587,0.40472 0.08426,0.19049 0.08527,0.20952 0.02025,0.37979 -0.03765,0.0986 -0.134696,0.24346 -0.215657,0.32193 l -0.1472,0.14267 0.145875,0.16147 c 0.3096,0.34268 0.401519,0.72613 0.250407,1.04456 -0.05906,0.12445 -0.417672,0.43143 -0.5838,0.49974 -0.03641,0.015 -0.03518,0.0305 0.0046,0.0586 0.06635,0.0469 0.12051,0.56929 0.06859,0.66159 -0.06029,0.10721 -0.786815,0.75773 -0.993751,0.88981 -0.12284,0.0784 -0.246349,0.12089 -0.351462,0.12089 -0.183566,0 -0.193819,0.0224 -0.07537,0.16456 0.122386,0.14691 0.509959,0.15801 0.936436,0.0268 0.271175,-0.0834 0.366029,-0.0935 0.619531,-0.0656 0.69937,0.0768 1.13655,0.46337 1.194051,1.05592 0.01917,0.19745 0.0066,0.27851 -0.06449,0.41425 -0.04858,0.0928 -0.08832,0.18097 -0.08832,0.19588 0,0.0149 0.07872,0.0626 0.174964,0.10603 0.207404,0.0935 0.445025,0.38678 0.510542,0.63009 0.09263,0.344 -0.05732,0.94376 -0.328238,1.31281 -0.139202,0.18963 -0.149194,0.21975 -0.09193,0.27701 0.03534,0.0353 0.196174,0.0962 0.357421,0.13528 l 0.293175,0.071 0.02283,0.19849 c 0.01853,0.16115 0.05568,0.23038 0.197476,0.36798 0.09605,0.0932 0.198435,0.24352 0.227509,0.33402 0.02908,0.0905 0.07888,0.19446 0.110677,0.23102 0.04341,0.0499 0.05132,0.15073 0.03177,0.40472 -0.01437,0.18664 -0.0034,0.50824 0.02447,0.71754 0.06319,0.47453 0.03534,0.54894 -0.28572,0.76333 -0.214246,0.14307 -0.264467,0.15952 -0.414206,0.13569 -0.253018,-0.0403 -0.493539,-0.035 -0.540347,0.0118 -0.04676,0.0468 0.09204,0.15669 0.385261,0.30512 0.170706,0.0864 0.183659,0.10438 0.160104,0.22216 -0.01409,0.0705 -0.06293,0.18052 -0.108521,0.24455 l -0.0829,0.11643 0.127302,0.25275 c 0.101593,0.2017 0.154082,0.25982 0.259839,0.28771 0.07288,0.0192 0.169163,0.0815 0.213942,0.13845 0.06815,0.0867 0.11867,0.10351 0.310251,0.10351 0.177821,0 0.25225,0.0214 0.333814,0.0958 0.190913,0.17434 0.365261,0.80938 0.307192,1.11892 -0.03471,0.18503 -0.230468,0.4143 -0.477154,0.55887 -0.169477,0.0993 -0.185862,0.1237 -0.185862,0.27657 0,0.0922 0.04971,0.28575 0.110474,0.43012 0.193523,0.45979 0.131184,0.78157 -0.176329,0.91005 -0.0803,0.0335 -0.283957,0.0603 -0.458694,0.0603 -0.381071,0 -0.455286,0.057 -0.455286,0.34969 0,0.13594 -0.04361,0.28052 -0.145952,0.48386 -0.145922,0.28992 -0.145939,0.29001 -0.0639,0.39429 0.09901,0.12587 0.10741,0.37845 0.01689,0.50769 -0.08065,0.11515 -0.328867,0.18766 -0.531438,0.15528 -0.169837,-0.0272 -0.51104,0.049 -0.51104,0.11402 0,0.023 -0.04881,0.0641 -0.108456,0.0913 -0.074,0.0337 -0.104445,0.0774 -0.09583,0.13754 0.01028,0.0717 0.03907,0.086 0.154353,0.0769 0.07795,-0.006 0.202392,-0.0426 0.276543,-0.081 0.07416,-0.0383 0.26026,-0.0787 0.413567,-0.0897 l 0.278743,-0.02 0.275419,0.21095 c 0.151478,0.11603 0.356497,0.26208 0.4556,0.32457 0.334729,0.21106 0.449806,0.63411 0.251295,0.92383 l -0.101036,0.14745 0.255703,0.0522 c 0.140639,0.0287 0.266332,0.0628 0.279337,0.0758 0.013,0.013 0.03446,0.10448 0.04768,0.2033 0.02197,0.16402 0.04152,0.18794 0.224688,0.27488 0.23974,0.11378 0.332269,0.26853 0.33096,0.55354 -0.0018,0.39665 -0.259963,0.80168 -0.6302,0.98873 -0.133207,0.0673 -0.277727,0.16171 -0.321162,0.20981 -0.07784,0.0862 -0.07681,0.0883 0.07113,0.15015 0.198186,0.0828 0.242154,0.17764 0.242154,0.5223 0,0.35674 -0.115367,0.61778 -0.343474,0.77717 -0.09081,0.0634 -0.188287,0.18092 -0.223835,0.26974 -0.06259,0.15642 -0.06229,0.15748 0.05154,0.18248 0.278106,0.0611 0.55837,0.36744 0.55837,0.61037 0,0.0441 0.07745,0.19558 0.172122,0.33656 0.177105,0.26377 0.241415,0.48317 0.195387,0.66657 -0.01504,0.06 -0.1463,0.19907 -0.307092,0.32544 -0.336456,0.2644 -0.399134,0.39384 -0.431322,0.89069 l -0.02375,0.36661 0.151811,0.0549 c 0.306198,0.11072 0.49771,0.44592 0.498207,0.87199 6.61e-4,0.22791 0.02074,0.20402 -0.50032,0.58387 -0.360622,0.26289 -0.405796,0.33946 -0.281353,0.47696 0.03856,0.0426 0.07925,0.17262 0.09043,0.28891 0.01661,0.17276 6.62e-4,0.24518 -0.08788,0.39605 -0.05951,0.10155 -0.155584,0.20999 -0.213505,0.24099 -0.10503,0.0562 -0.408975,0.0494 -0.546602,-0.0123 -0.100053,-0.0448 -0.246911,0.17912 -0.288033,0.43923 -0.04447,0.28133 -0.121059,0.38666 -0.432298,0.59449 -0.4475,0.29883 -0.945595,0.38801 -1.22286,0.21896 -0.114509,-0.0698 -0.138455,-0.11068 -0.138455,-0.23621 0,-0.13093 -0.0409,-0.19294 -0.297626,-0.45118 -0.175322,-0.17637 -0.326114,-0.29369 -0.366975,-0.28551 -0.04605,0.009 -0.101321,0.12485 -0.164514,0.34419 -0.135686,0.47094 -0.306216,0.62824 -0.681126,0.62824 -0.275313,0 -0.364226,-0.0996 -0.364226,-0.40811 v -0.23769 l -0.138456,0.031 c -0.07615,0.017 -0.330161,0.0349 -0.564469,0.0396 -0.581688,0.0118 -0.57512,0.007 -0.57512,0.38076 0,0.27179 -0.01518,0.33056 -0.130148,0.50413 -0.170022,0.25669 -0.340096,0.3195 -0.592108,0.21866 -0.148904,-0.0596 -0.206138,-0.0631 -0.345812,-0.0212 -0.158448,0.0475 -0.167377,0.0592 -0.167377,0.22021 0,0.23376 -0.08675,0.42067 -0.269863,0.58143 -0.225078,0.19763 -0.440961,0.25196 -0.727728,0.18317 -0.235806,-0.0566 -0.262609,-0.0538 -0.557365,0.0584 -0.339309,0.12909 -0.64536,0.0548 -0.742745,-0.18032 l -0.05182,-0.12521 -0.213682,0.0564 c -0.234989,0.062 -0.307885,0.0491 -0.450765,-0.0795 -0.08724,-0.0785 -0.115001,-0.0818 -0.31211,-0.0363 -0.32783,0.0757 -0.519579,0.0624 -0.682257,-0.0472 -0.23396,-0.15767 -0.253645,-0.28899 -0.08982,-0.59904 0.159792,-0.3024 0.163673,-0.33077 0.0583,-0.42613 -0.09486,-0.0858 -0.289501,-0.0888 -0.433317,-0.007 -0.05858,0.0335 -0.156998,0.0616 -0.218711,0.0624 l -0.112208,0.001 -0.0307,1.4591 c -0.01688,0.80251 -0.02477,1.84252 -0.01754,2.31114 0.021,1.3603 -0.03241,3.30621 -0.111675,4.06844 -0.0852,0.81928 -0.067,1.50258 0.06357,2.38569 0.04677,0.31631 0.08535,0.73177 0.08574,0.92323 l 7.14e-4,0.34812 0.457967,0.41543 c 0.576286,0.52275 1.524691,1.14938 2.414223,1.5951 0.157684,0.079 0.221853,0.25706 0.152767,0.42385 -0.07999,0.19311 -0.220101,0.21709 -0.72919,0.12482 -0.547193,-0.0992 -0.506503,-0.10064 -0.506503,0.0183 0,0.13127 -0.123757,0.2387 -0.309772,0.26889 -0.222398,0.0361 -1.071683,-0.0574 -1.434458,-0.15798 l -0.316897,-0.0878 -0.372491,0.17306 c -0.292063,0.1357 -0.43053,0.17532 -0.641257,0.18346 -0.23489,0.009 -0.273608,-6.6e-4 -0.307188,-0.0763 -0.03826,-0.0864 -0.03964,-0.0864 -0.341101,-0.007 -0.418453,0.11006 -1.966207,0.14867 -2.215492,0.0553 z"
       style="fill:#000000;stroke-width:0.0319511"
        />
  </g>
</svg>
