

<svg
   width="33.866699mm"
   height="39.396717mm"
   viewBox="0 0 33.866699 39.396717"
   version="1.1"
   
   inkscape:version="1.1.2 (0a00cf5339, 2022-02-04)"
   sodipodi:docname="tree-1.svg"
   xmlns:inkscape="http://www.inkscape.org/namespaces/inkscape"
   xmlns:sodipodi="http://sodipodi.sourceforge.net/DTD/sodipodi-0.dtd"
   xmlns="http://www.w3.org/2000/svg"
   xmlns:svg="http://www.w3.org/2000/svg">
  <sodipodi:namedview
     
     pagecolor="#ffffff"
     bordercolor="#666666"
     borderopacity="1.0"
     inkscape:pageshadow="2"
     inkscape:pageopacity="0.0"
     inkscape:pagecheckerboard="0"
     inkscape:document-units="mm"
     showgrid="false"
     fit-margin-top="0"
     fit-margin-left="0"
     fit-margin-right="0"
     fit-margin-bottom="0"
     inkscape:zoom="0.57370932"
     inkscape:cx="-478.4653"
     inkscape:cy="216.13733"
     inkscape:window-width="1920"
     inkscape:window-height="1051"
     inkscape:window-x="900"
     inkscape:window-y="900"
     inkscape:window-maximized="1"
     inkscape:current-layer="layer1" />
  <defs
     />
  <g
     inkscape:label="Layer 1"
     inkscape:groupmode="layer"
     
     transform="translate(-84.309229,-91.161371)">
    <path
       d="m 93.355271,130.53091 c -0.0077,-0.0125 -0.02793,-0.0683 -0.04487,-0.12396 -0.01693,-0.0556 -0.05903,-0.1425 -0.09356,-0.193 l -0.06277,-0.0918 v 0.0724 c 0,0.0946 -0.05485,0.14664 -0.15461,0.14664 -0.05964,0 -0.09036,-0.0152 -0.118945,-0.0588 -0.0212,-0.0324 -0.04847,-0.0527 -0.06061,-0.0452 -0.01213,0.007 -0.04717,-0.003 -0.07786,-0.0229 -0.04837,-0.0317 -0.05756,-0.032 -0.069,-0.002 -0.01927,0.0502 -0.15864,0.12891 -0.228453,0.12902 -0.08021,0 -0.11687,-0.0408 -0.11687,-0.13056 0,-0.0675 -0.0066,-0.074 -0.07542,-0.074 -0.04148,0 -0.0793,-0.0116 -0.08403,-0.0258 -0.0051,-0.0154 -0.04033,-0.0207 -0.08685,-0.0131 -0.04303,0.007 -0.0849,0.002 -0.09306,-0.0113 -0.02622,-0.0424 -0.134046,0.024 -0.118647,0.0731 0.02355,0.075 -0.0524,0.15821 -0.144447,0.15821 -0.06926,0 -0.09319,-0.0155 -0.154623,-0.10034 -0.08902,-0.12291 -0.131121,-0.149 -0.177846,-0.11022 -0.05408,0.0449 -0.162945,-0.0449 -0.162945,-0.13433 0,-0.059 0.0088,-0.0681 0.06493,-0.0673 0.03571,5.6e-4 0.06493,-0.002 0.06493,-0.005 0,-0.003 -0.03187,-0.0563 -0.07083,-0.1177 -0.127248,-0.20065 -0.07217,-0.22897 0.153465,-0.0789 0.07791,0.0518 0.145202,0.0837 0.14953,0.0708 0.0043,-0.0129 0.03009,-0.0234 0.05724,-0.0234 h 0.04937 l -0.05133,-0.0547 c -0.06429,-0.0684 -0.06699,-0.13424 -0.0055,-0.13424 0.0252,0 0.0524,0.0106 0.06042,0.0236 0.008,0.013 0.02596,0.0236 0.03985,0.0236 0.01661,0 0.01997,-0.0398 0.0098,-0.11633 -0.01439,-0.10844 -0.01179,-0.11685 0.03827,-0.12395 0.0445,-0.006 0.05371,-0.0222 0.05371,-0.0925 0,-0.2195 0.237534,-0.24492 0.519604,-0.0556 0.06503,0.0437 0.135912,0.10929 0.157522,0.14586 0.02161,0.0366 0.08527,0.0918 0.141476,0.12268 l 0.102189,0.0562 -0.06493,-0.0698 c -0.03571,-0.0384 -0.06493,-0.0868 -0.06493,-0.10771 0,-0.0402 -0.09704,-0.13115 -0.213248,-0.19979 -0.09129,-0.0539 -0.09097,-0.12187 7.53e-4,-0.15649 0.05423,-0.0205 0.07083,-0.0414 0.07083,-0.0895 0,-0.0891 0.05337,-0.12432 0.165497,-0.10929 0.08605,0.0115 0.09421,0.008 0.09421,-0.0413 0,-0.0716 0.05449,-0.11322 0.169196,-0.12918 l 0.09428,-0.0131 -0.06091,-0.0896 c -0.07575,-0.11142 -0.07672,-0.15348 -0.0042,-0.18106 0.0312,-0.0119 0.0637,-0.0328 0.07222,-0.0466 0.05266,-0.0852 0.314754,0.0281 0.54748,0.23677 0.09285,0.0832 0.21757,0.18131 0.277156,0.21795 0.05958,0.0366 0.142985,0.11504 0.185332,0.17423 0.07436,0.10396 0.07725,0.10551 0.08445,0.0457 0.01153,-0.0957 -0.124821,-0.26521 -0.314387,-0.39082 -0.130517,-0.0865 -0.16527,-0.12177 -0.16527,-0.16786 0,-0.0514 0.01151,-0.0592 0.09636,-0.0654 0.06591,-0.005 0.119273,-0.028 0.168913,-0.0733 0.09791,-0.0894 0.128636,-0.0982 0.232802,-0.0662 0.128884,0.0396 0.324608,0.23287 0.540039,0.5334 0.197603,0.27566 0.272352,0.33563 0.214711,0.17226 -0.104468,-0.2961 -0.249558,-0.49175 -0.460828,-0.62145 -0.165979,-0.10189 -0.16753,-0.10379 -0.16106,-0.19688 0.0088,-0.12592 0.07571,-0.15129 0.258775,-0.0981 0.172045,0.05 0.300999,0.17912 0.417009,0.41754 0.08361,0.17181 0.09184,0.18089 0.140362,0.15493 0.05138,-0.0275 0.05125,-0.028 -0.04255,-0.17159 -0.05175,-0.0792 -0.176448,-0.23697 -0.277109,-0.3506 -0.261546,-0.29526 -0.272568,-0.31146 -0.256205,-0.37667 0.02852,-0.11362 0.156915,-0.0895 0.36831,0.0692 l 0.08263,0.062 0.0073,-0.0835 c 0.0084,-0.0964 0.07509,-0.155 0.176196,-0.155 0.09739,0 0.187477,0.0545 0.301333,0.18218 0.07963,0.0893 0.09773,0.10104 0.08655,0.056 -0.03818,-0.15388 0.104441,-0.1897 0.266747,-0.067 0.05582,0.0422 0.118513,0.087 0.139299,0.0996 0.02079,0.0126 0.07665,0.0466 0.124143,0.0756 l 0.08635,0.0527 0.01633,-0.14067 c 0.0129,-0.11119 0.02887,-0.15053 0.0762,-0.18776 0.14931,-0.11745 0.422639,0.0114 0.489252,0.23066 0.02018,0.0664 0.06007,0.0462 0.06007,-0.0304 0,-0.0637 0.06871,-0.11155 0.148851,-0.10357 0.02851,0.003 0.08134,-0.003 0.117394,-0.013 0.0833,-0.0231 0.224151,0.0646 0.299411,0.18637 0.02863,0.0463 0.05753,0.0842 0.06422,0.0842 0.03428,0 0.525021,-0.42799 0.757937,-0.66102 0.734905,-0.73528 1.188532,-1.5098 1.349198,-2.30364 0.141863,-0.70094 0.11767,-1.30227 -0.128645,-3.19756 -0.125376,-0.96472 -0.153632,-1.26907 -0.168772,-1.81797 -0.01681,-0.60949 0.002,-0.85964 0.157026,-2.08949 0.154377,-1.22466 0.17152,-1.42453 0.172127,-2.00685 7.25e-4,-0.69508 -0.09278,-1.56456 -0.244367,-2.27246 l -0.05182,-0.24201 -0.108901,-3.7e-4 c -0.145589,-4.6e-4 -0.354311,-0.052 -0.566644,-0.13992 -0.09593,-0.0397 -0.215753,-0.0722 -0.266272,-0.0722 h -0.09185 l 0.0139,0.14756 c 0.01169,0.12407 0.0061,0.15999 -0.03524,0.22566 -0.09712,0.15434 -0.368422,0.21238 -0.62985,0.13475 -0.110324,-0.0328 -0.124058,-0.032 -0.209962,0.0118 -0.159912,0.0815 -0.343086,0.0473 -0.552786,-0.10338 -0.08488,-0.061 -0.140912,-0.0818 -0.243006,-0.0903 -0.171848,-0.0143 -0.273942,-0.091 -0.376983,-0.28322 -0.07071,-0.13196 -0.08759,-0.14785 -0.184096,-0.17343 -0.159679,-0.0423 -0.272374,-0.0974 -0.364273,-0.17811 -0.06915,-0.0607 -0.105101,-0.0736 -0.219272,-0.0786 -0.07715,-0.003 -0.186653,-0.0283 -0.251709,-0.0573 -0.08135,-0.0363 -0.161909,-0.0514 -0.27445,-0.0514 -0.175039,0 -0.318637,-0.0414 -0.454689,-0.13126 -0.08352,-0.0551 -0.09287,-0.0565 -0.158197,-0.0227 -0.09476,0.049 -0.306678,0.0451 -0.446915,-0.008 -0.06376,-0.0242 -0.180522,-0.0894 -0.259458,-0.14473 l -0.143522,-0.10067 -0.139844,0.0523 -0.139843,0.0523 0.07063,0.13374 c 0.06233,0.11805 0.0696,0.15236 0.06188,0.29232 -0.0076,0.13703 -0.01827,0.16871 -0.07885,0.23311 -0.101123,0.10751 -0.195449,0.13955 -0.410861,0.13955 -0.167198,0 -0.191821,0.006 -0.215146,0.0492 -0.05908,0.1104 -0.271984,0.14461 -0.492475,0.0791 l -0.124356,-0.0369 -0.121936,0.11519 c -0.251486,0.2376 -0.51845,0.34266 -0.87745,0.34532 -0.207394,0.002 -0.252335,-0.006 -0.369625,-0.0603 -0.07344,-0.0341 -0.176954,-0.10676 -0.23004,-0.16146 -0.117657,-0.12124 -0.239907,-0.36213 -0.255936,-0.50431 l -0.01184,-0.1051 -0.09457,0.0334 c -0.201876,0.0712 -0.363755,0.0214 -0.445033,-0.13687 -0.05009,-0.0976 -0.0562,-0.18051 -0.02205,-0.29955 0.01271,-0.0443 0.0141,-0.0957 0.0031,-0.11529 -0.01517,-0.0271 -0.04335,0 -0.120533,0.11548 -0.211749,0.31711 -0.388739,0.45081 -0.606289,0.458 -0.08907,0.003 -0.166122,0.027 -0.28332,0.0884 -0.392461,0.20559 -0.741938,0.14643 -0.889989,-0.15067 -0.07086,-0.14218 -0.07907,-0.27296 -0.02651,-0.42192 0.05386,-0.15267 0.04892,-0.16526 -0.06493,-0.16541 -0.339889,-4.6e-4 -0.491127,-0.19165 -0.328572,-0.4154 0.03679,-0.0507 0.0853,-0.10724 0.107799,-0.12578 0.05601,-0.0461 0.113879,-0.16299 0.09547,-0.19279 -0.0084,-0.0135 -0.04584,0.0174 -0.08404,0.0694 -0.03792,0.0516 -0.122261,0.12797 -0.187415,0.16978 -0.145326,0.0932 -0.475545,0.21091 -0.593143,0.21134 -0.114292,4.6e-4 -0.184692,-0.0842 -0.184692,-0.22191 0,-0.0538 -0.01557,-0.12004 -0.0346,-0.14721 -0.0369,-0.0527 -0.172915,-0.12638 -0.233222,-0.12638 -0.02002,0 -0.108717,0.0637 -0.197117,0.14145 -0.393333,0.34613 -0.9045,0.48731 -1.206522,0.33323 -0.200904,-0.1025 -0.358518,-0.29211 -0.391378,-0.47083 -0.03569,-0.19414 0.09422,-0.41027 0.313997,-0.5224 l 0.09469,-0.0483 -0.0583,-0.10965 c -0.103681,-0.195 -0.05916,-0.44321 0.104146,-0.58062 0.0411,-0.0346 0.137303,-0.0857 0.213779,-0.11358 0.138493,-0.0505 0.138958,-0.051 0.11463,-0.12078 -0.06271,-0.1799 0.05505,-0.45843 0.236121,-0.55845 0.07735,-0.0427 0.09938,-0.0685 0.09938,-0.11649 0,-0.0339 0.02278,-0.10867 0.05062,-0.16618 0.07802,-0.16117 0.227345,-0.2417 0.683467,-0.36858 0.07262,-0.0202 0.161713,-0.0601 0.197983,-0.0886 l 0.06594,-0.0519 -0.140916,-0.0386 c -0.0775,-0.0212 -0.173652,-0.0619 -0.213661,-0.0904 -0.108383,-0.0772 -0.178144,-0.24083 -0.184069,-0.43184 -0.0047,-0.15091 -0.01001,-0.16511 -0.09036,-0.24088 -0.04695,-0.0443 -0.101386,-0.11883 -0.120948,-0.16566 -0.103085,-0.24672 0.02861,-0.58646 0.277269,-0.71531 0.110869,-0.0575 0.297185,-0.0825 0.402594,-0.0541 0.112833,0.0304 0.205348,-0.006 0.205348,-0.0806 0,-0.0647 0.107478,-0.24269 0.158741,-0.26285 0.03469,-0.0136 0.02673,-0.0244 -0.04613,-0.0621 -0.04844,-0.0251 -0.111367,-0.0771 -0.13984,-0.11564 -0.02847,-0.0385 -0.08977,-0.0823 -0.136223,-0.0974 -0.25791,-0.0835 -0.477155,-0.2498 -0.511928,-0.38833 -0.04559,-0.18165 0.04203,-0.4388 0.173488,-0.50916 0.06251,-0.0335 0.06801,-0.0734 0.01604,-0.11651 -0.0799,-0.0663 -0.160732,-0.26636 -0.1617,-0.40018 -0.0011,-0.14987 0.08114,-0.31714 0.196151,-0.39904 0.07988,-0.0569 0.306572,-0.12005 0.430821,-0.12005 0.07409,0 0.09518,-0.0123 0.137118,-0.0802 0.06238,-0.10094 0.142195,-0.15346 0.307773,-0.20256 l 0.13052,-0.0387 0.01596,-0.16011 c 0.02149,-0.21563 0.09633,-0.32856 0.27061,-0.40835 0.112138,-0.0513 0.154187,-0.058 0.311111,-0.0491 0.0998,0.006 0.213323,0.0243 0.25228,0.0414 0.03936,0.0173 0.139014,0.0293 0.224295,0.0269 0.08441,-0.002 0.16894,0.006 0.187857,0.0185 0.02564,0.017 0.05995,-7.4e-4 0.134754,-0.0697 0.06824,-0.0629 0.131006,-0.0974 0.196124,-0.10782 0.07807,-0.0125 0.09847,-0.0267 0.110423,-0.0772 0.0081,-0.034 0.02775,-0.0778 0.04376,-0.0973 0.01601,-0.0195 0.03563,-0.094 0.04361,-0.16568 0.03157,-0.28364 0.154331,-0.47716 0.324241,-0.51114 0.03789,-0.008 0.0689,-0.0165 0.0689,-0.0198 0,-0.003 -0.02778,-0.0667 -0.06174,-0.14086 -0.09226,-0.20152 -0.08901,-0.42517 0.0091,-0.62846 0.04018,-0.0833 0.09053,-0.21979 0.111875,-0.30342 0.07864,-0.30809 0.185467,-0.42255 0.367231,-0.39348 0.04885,0.008 0.103074,0.0197 0.120503,0.0264 0.02216,0.008 0.04765,-0.0385 0.08476,-0.15628 l 0.05307,-0.16844 -0.153793,-0.15229 c -0.298044,-0.29512 -0.460021,-0.594 -0.478129,-0.882227 -0.0094,-0.149396 -0.0031,-0.194379 0.03856,-0.27605 0.06162,-0.120779 0.166136,-0.201925 0.327628,-0.254369 0.101507,-0.03296 0.123953,-0.04999 0.123953,-0.09407 0,-0.09052 0.0897,-0.348818 0.153645,-0.442392 0.176603,-0.258442 0.583269,-0.240606 0.874046,0.03835 l 0.101468,0.09734 0.08304,-0.0719 0.08303,-0.0719 -0.126415,-0.11926 c -0.108157,-0.102035 -0.133934,-0.144012 -0.178456,-0.290584 -0.09621,-0.316755 -0.02519,-0.604456 0.178082,-0.721371 0.135902,-0.07816 0.302284,-0.09249 0.454208,-0.03911 l 0.123418,0.04337 0.05212,-0.05548 c 0.131708,-0.140195 0.387106,-0.116086 0.550425,0.05196 0.0941,0.09682 0.100054,0.09913 0.284451,0.110222 0.128396,0.0077 0.237173,0.03124 0.341798,0.07388 l 0.153465,0.06255 0.04079,-0.05283 c 0.02402,-0.03111 0.04101,-0.09506 0.04132,-0.155537 7.52e-4,-0.148212 0.09711,-0.236799 0.348434,-0.320329 l 0.194445,-0.06462 -0.03568,-0.069 c -0.03476,-0.06721 -0.04043,-0.06901 -0.218055,-0.06914 -0.241786,0 -0.343909,-0.0318 -0.465917,-0.144257 -0.137922,-0.12713 -0.179348,-0.223423 -0.17924,-0.416629 0,-0.0875 -0.0058,-0.215422 -0.01293,-0.284268 -0.0115,-0.11056 -0.0052,-0.136472 0.05399,-0.221872 0.03685,-0.05318 0.122916,-0.138905 0.191244,-0.190493 0.09758,-0.07368 0.124231,-0.107869 0.124231,-0.159391 0,-0.03608 0.03092,-0.124372 0.06871,-0.196215 0.06389,-0.121464 0.06781,-0.143808 0.05581,-0.318837 -0.01121,-0.163519 -0.0059,-0.202729 0.04061,-0.298762 0.06825,-0.140982 0.219403,-0.251942 0.436402,-0.320369 0.180613,-0.05695 0.201574,-0.06662 0.381981,-0.176278 0.17032,-0.10352 0.413132,-0.178737 0.62558,-0.193779 0.153642,-0.01088 0.196461,-0.0052 0.286107,0.03824 0.08453,0.04092 0.118047,0.04624 0.169101,0.02683 0.08079,-0.03071 0.251633,-0.0312 0.331232,-9.51e-4 0.03367,0.0128 0.111387,0.06975 0.17271,0.126556 0.137722,0.127577 0.192881,0.157138 0.292922,0.156968 0.129091,-3.26e-4 0.240343,-0.04183 0.410293,-0.153446 0.08865,-0.05823 0.177708,-0.111842 0.197904,-0.119148 0.0202,-0.0073 0.06873,-0.0574 0.107833,-0.111318 0.03911,-0.05392 0.132075,-0.144372 0.206587,-0.20101 0.07452,-0.05663 0.135482,-0.116565 0.135482,-0.133177 0,-0.01661 0.03187,-0.0742 0.07083,-0.127983 0.03896,-0.05378 0.07083,-0.125641 0.07083,-0.159695 0,-0.03405 0.02247,-0.101894 0.04993,-0.15075 l 0.04993,-0.08883 -0.06162,-0.10515 c -0.100113,-0.170828 -0.156282,-0.364617 -0.156282,-0.539187 0,-0.139988 0.0091,-0.172576 0.07673,-0.273722 0.05482,-0.08202 0.11382,-0.133649 0.206588,-0.180751 0.120883,-0.06138 0.147474,-0.0656 0.384889,-0.0611 0.332462,0.0063 0.347185,-0.0052 0.287783,-0.224646 -0.07028,-0.259628 -0.0164,-0.488268 0.137115,-0.581872 0.163149,-0.09948 0.408575,-0.04211 0.742811,0.173632 0.09428,0.06085 0.181207,0.110643 0.193176,0.110643 0.01197,0 0.04446,-0.03187 0.0722,-0.07083 0.04516,-0.06342 0.0635,-0.07083 0.175357,-0.07083 0.09423,0 0.158335,0.01783 0.260874,0.07255 0.164821,0.08795 0.197413,0.07937 0.415405,-0.109416 0.175693,-0.152147 0.262623,-0.185408 0.487633,-0.186555 0.15548,-7.9e-4 0.17638,0.0049 0.2361,0.06456 0.0576,0.05753 0.0655,0.0832 0.0655,0.21249 0,0.08088 -0.009,0.207968 -0.0194,0.282415 -0.0184,0.128963 -0.0163,0.138211 0.0458,0.195767 0.0606,0.05619 0.076,0.05935 0.22012,0.04514 0.17835,-0.01757 0.32621,0.01373 0.45243,0.09579 l 0.0852,0.05537 0.16249,-0.15093 c 0.1794,-0.166641 0.24997,-0.193967 0.39558,-0.153161 0.38126,0.106849 0.652,0.627942 0.65261,1.256116 3.8e-4,0.169211 -0.0443,0.469895 -0.0846,0.572815 -0.0149,0.03807 -0.0105,0.04242 0.0276,0.0269 0.0992,-0.04044 0.23841,-0.0421 0.31262,-0.0037 0.0973,0.05034 0.14598,0.148998 0.14598,0.296181 0,0.0978 0.007,0.119227 0.0413,0.119243 0.0227,1e-5 0.10923,0.03215 0.19223,0.07141 0.083,0.03927 0.15442,0.06789 0.15871,0.0636 0.004,-0.0043 -0.0222,-0.04439 -0.0589,-0.08912 -0.12356,-0.150567 -0.1527,-0.233097 -0.16341,-0.462819 -0.009,-0.193448 -0.004,-0.229955 0.0496,-0.346526 0.0423,-0.09242 0.0881,-0.149146 0.15761,-0.195124 0.16543,-0.109478 0.42357,-0.102425 0.59282,0.0162 0.0593,0.04153 0.0623,0.04137 0.1095,-0.0059 0.12894,-0.128937 0.42763,-0.05794 0.54389,0.129278 0.0599,0.09651 0.0754,0.10634 0.20468,0.130462 0.31553,0.05885 0.64592,0.281493 0.78181,0.526818 0.0627,0.113164 0.0699,0.147887 0.0699,0.334445 v 0.208172 l -0.11271,0.106488 -0.11271,0.106491 0.058,0.06888 c 0.0319,0.03788 0.0644,0.08932 0.0724,0.114309 0.0132,0.04149 0.02,0.04253 0.0784,0.01208 0.0352,-0.01835 0.10645,-0.03386 0.15839,-0.03447 0.0894,-10e-4 0.0973,-0.0072 0.14789,-0.115211 0.0322,-0.06877 0.0888,-0.138587 0.14239,-0.17574 0.22893,-0.158646 0.64247,-0.112013 0.7964,0.08981 0.0716,0.0939 0.14415,0.257673 0.16552,0.373749 0.0134,0.07282 0.0353,0.100218 0.11956,0.149593 0.14186,0.08314 0.30446,0.270607 0.3496,0.403069 0.0468,0.137469 0.0481,0.302339 0.003,0.429476 -0.0337,0.09566 -0.0334,0.09741 0.0193,0.09741 0.0295,0 0.1099,0.01669 0.17861,0.0371 0.12034,0.03574 0.12683,0.03531 0.17684,-0.01167 0.0505,-0.04742 0.36226,-0.166828 0.43695,-0.167339 0.0204,0 0.12749,-0.04252 0.23787,-0.09419 0.24759,-0.115882 0.42807,-0.126818 0.66626,-0.04036 0.30921,0.112237 0.53697,0.311259 0.66432,0.580479 0.0624,0.132009 0.074,0.184102 0.0741,0.334298 0,0.149321 -0.0106,0.19863 -0.0666,0.30675 l -0.0668,0.128829 0.055,0.0356 c 0.0302,0.01958 0.0997,0.0764 0.15436,0.126274 0.0973,0.08878 0.10128,0.09005 0.18888,0.06075 0.11825,-0.03956 0.4637,-0.04005 0.59651,-8.55e-4 0.13943,0.04115 0.23612,0.148271 0.3024,0.335003 0.0297,0.08354 0.11672,0.26439 0.19348,0.401886 0.16221,0.290547 0.20172,0.421543 0.17933,0.594644 -0.009,0.06786 -0.0148,0.183676 -0.0134,0.257379 0.003,0.151209 -0.0553,0.292059 -0.15227,0.368316 l -0.059,0.04639 0.24472,0.01088 c 0.20568,0.0091 0.26596,0.02128 0.37792,0.07606 0.13937,0.06819 0.18866,0.123064 0.23709,0.26395 0.0248,0.07226 0.0494,0.09283 0.16832,0.140792 0.21167,0.08539 0.33927,0.254603 0.33978,0.450563 0,0.0279 0.0367,0.10507 0.0814,0.17146 0.14222,0.21134 0.1364,0.45863 -0.0135,0.57599 -0.0626,0.0489 -0.0691,0.0639 -0.0466,0.10596 0.0144,0.0269 0.0262,0.0924 0.0262,0.14552 0,0.0833 -0.009,0.10014 -0.0649,0.12253 -0.0357,0.0143 -0.11539,0.0313 -0.17707,0.0378 -0.0617,0.007 -0.11215,0.015 -0.11215,0.0188 0,0.004 0.0571,0.0901 0.12687,0.19178 0.22838,0.33277 0.30013,0.52653 0.2536,0.68487 -0.0299,0.10161 0.0174,0.11745 0.14622,0.049 0.0798,-0.0424 0.13782,-0.0527 0.29966,-0.0529 0.17645,-2.8e-4 0.21395,0.008 0.31057,0.0643 0.12645,0.0743 0.19584,0.19613 0.22046,0.38694 l 0.0156,0.12099 0.10693,0.0147 c 0.13755,0.0189 0.28623,0.10278 0.32916,0.18579 0.0309,0.0598 0.045,0.0652 0.17048,0.0652 0.19214,0 0.3565,0.0543 0.44437,0.14691 0.17736,0.18686 0.19721,0.37209 0.0667,0.62243 -0.0456,0.0874 -0.0801,0.16068 -0.0767,0.16283 0.11075,0.071 0.16468,0.12594 0.20476,0.20872 0.0572,0.11822 0.0637,0.27365 0.0154,0.36719 -0.0532,0.10292 -0.21905,0.23894 -0.38059,0.31219 -0.088,0.0399 -0.16867,0.0962 -0.19916,0.13904 -0.0282,0.0396 -0.0902,0.0926 -0.13789,0.11773 -0.0675,0.0357 -0.0756,0.046 -0.0367,0.0468 0.0556,10e-4 0.16178,0.13868 0.18705,0.2422 0.0197,0.0808 0.0763,0.099 0.20188,0.0652 0.0543,-0.0146 0.14799,-0.0198 0.20809,-0.0116 0.43864,0.0603 0.6612,0.56092 0.3852,0.86642 -0.0805,0.0891 -0.0844,0.10133 -0.0867,0.27466 -0.002,0.13832 -0.0149,0.20499 -0.0548,0.28073 -0.0609,0.1156 -0.21581,0.21731 -0.36043,0.23671 l -0.0955,0.0128 0.0468,0.0499 c 0.0614,0.0654 0.14301,0.24714 0.14367,0.31997 3.7e-4,0.0317 -0.0117,0.11698 -0.0267,0.18955 -0.0255,0.12357 -0.0237,0.13752 0.0295,0.21952 0.0478,0.0737 0.07,0.0876 0.14029,0.0879 0.0817,3.7e-4 0.0846,-0.003 0.12986,-0.1457 0.0605,-0.19054 0.12921,-0.24358 0.31569,-0.24358 0.11061,0 0.15391,0.0124 0.23163,0.0662 0.0754,0.0522 0.14532,0.0732 0.33053,0.0992 0.12921,0.0181 0.29429,0.0552 0.36686,0.0823 0.16557,0.0619 0.29393,0.19642 0.31535,0.33036 0.009,0.0587 0.0278,0.0947 0.0485,0.0947 0.072,0 0.21469,0.0956 0.27704,0.18554 0.0779,0.11243 0.11177,0.24286 0.0934,0.35985 l -0.0134,0.085 0.11121,0.0152 c 0.0612,0.008 0.1621,0.043 0.22432,0.0768 0.20311,0.11054 0.29203,0.37275 0.2006,0.59157 -0.0479,0.11473 -0.0478,0.11502 0.0552,0.14589 0.14068,0.0422 0.27494,0.15272 0.33427,0.27529 0.0974,0.20128 0.0255,0.43847 -0.19442,0.64121 -0.15578,0.14359 -0.2781,0.18149 -0.54239,0.16805 -0.28717,-0.0146 -0.49456,-0.0859 -0.75419,-0.25941 -0.11238,-0.0751 -0.22468,-0.13652 -0.24956,-0.13652 -0.0249,0 -0.0909,0.0391 -0.14667,0.0868 -0.10069,0.0862 -0.10134,0.0878 -0.087,0.2095 0.012,0.10205 0.006,0.13307 -0.0344,0.18468 -0.0588,0.0747 -0.16316,0.0811 -0.42748,0.0261 -0.21188,-0.0441 -0.39831,-0.13218 -0.50433,-0.2382 -0.0893,-0.0893 -0.10517,-0.096 -0.10517,-0.0444 0,0.0196 0.0744,0.10835 0.16527,0.19729 0.14603,0.14288 0.16527,0.17193 0.16527,0.24955 0,0.14322 -0.17148,0.27129 -0.36596,0.27332 -0.10509,0.001 -0.11411,0.033 -0.0468,0.16582 0.0546,0.10779 0.0622,0.14773 0.0545,0.28555 -0.007,0.13091 -0.0219,0.17844 -0.0792,0.25977 -0.15241,0.21639 -0.45683,0.27365 -0.78324,0.14733 -0.12085,-0.0468 -0.19695,-0.0609 -0.30839,-0.0575 -0.22128,0.007 -0.37042,-0.0702 -0.60052,-0.31037 -0.10115,-0.1056 -0.19102,-0.18491 -0.19969,-0.17624 -0.009,0.009 0.003,0.0723 0.0269,0.14141 0.0735,0.2163 -0.008,0.41011 -0.1976,0.46675 -0.0905,0.0271 -0.23553,0.001 -0.41896,-0.0742 -0.0645,-0.0266 -0.0933,-0.0239 -0.22596,0.0209 -0.0836,0.0282 -0.19376,0.0511 -0.24478,0.0508 -0.18439,-10e-4 -0.40665,-0.16019 -0.4664,-0.33399 -0.0733,-0.21328 -0.14218,-0.009 -0.0794,0.23629 0.0222,0.0865 0.0402,0.20281 0.0401,0.2585 -3.7e-4,0.21044 -0.24518,0.35914 -0.59112,0.35914 -0.30098,0 -0.50945,-0.12642 -0.64836,-0.39316 -0.0554,-0.1063 -0.0827,-0.13643 -0.1187,-0.13094 -0.22221,0.0338 -0.26576,0.032 -0.35814,-0.0152 -0.0524,-0.0267 -0.14359,-0.1023 -0.20255,-0.16787 -0.19109,-0.21254 -0.30639,-0.14046 -0.28342,0.17718 0.011,0.15285 0.007,0.17223 -0.0473,0.23551 -0.0538,0.0625 -0.0755,0.0698 -0.23303,0.0777 -0.19666,0.01 -0.39665,-0.0335 -0.62096,-0.13476 -0.10439,-0.0471 -0.1696,-0.0619 -0.24142,-0.0549 l -0.0984,0.01 0.0131,0.12672 c 0.0177,0.17096 -0.0216,0.25695 -0.15216,0.33346 -0.0857,0.0502 -0.13416,0.0614 -0.26237,0.0604 -0.0865,-6.5e-4 -0.20275,-0.0178 -0.25834,-0.0381 -0.0952,-0.0348 -0.10552,-0.0342 -0.17708,0.009 -0.15332,0.0935 -0.42778,0.0375 -0.62262,-0.12704 -0.0449,-0.0379 -0.0894,-0.0571 -0.11232,-0.0483 -0.0689,0.0264 -0.20016,-0.015 -0.30756,-0.097 -0.10054,-0.0767 -0.1091,-0.0791 -0.17171,-0.0464 -0.0878,0.0458 -0.27867,0.0438 -0.42015,-0.004 -0.10048,-0.0342 -0.19282,-0.0372 -0.74202,-0.0235 -0.63617,0.0158 -0.81051,0.0314 -1.14307,0.10193 -0.1466,0.0311 -0.19022,0.0502 -0.20902,0.0914 -0.0404,0.0886 -0.1848,0.15253 -0.3444,0.15253 -0.13217,0 -0.15207,0.008 -0.28706,0.10903 -0.49393,0.37131 -0.79573,1.03452 -0.94417,2.0749 -0.0944,0.66139 -0.21502,2.19684 -0.26345,3.35262 -0.0308,0.73477 -0.0162,2.574 0.0247,3.11653 0.0474,0.62877 0.0995,1.15868 0.1566,1.59367 0.0316,0.24023 0.0945,0.7449 0.14001,1.12148 0.17618,1.45959 0.31692,2.0708 0.62745,2.72493 0.16885,0.35569 0.35276,0.61897 0.61964,0.88705 l 0.23469,0.23576 0.0381,-0.0586 c 0.0209,-0.0322 0.062,-0.0811 0.0912,-0.10861 0.0292,-0.0275 0.0531,-0.0575 0.0531,-0.0668 0,-0.009 -0.0425,-0.0896 -0.0944,-0.17848 -0.0519,-0.0889 -0.0944,-0.18409 -0.0944,-0.21146 0,-0.0619 0.0576,-0.0862 0.12554,-0.0529 0.0283,0.0139 0.0781,0.0323 0.11056,0.041 0.0325,0.009 0.0856,0.0327 0.11805,0.0533 0.0325,0.0207 0.0912,0.0349 0.13062,0.0316 0.0656,-0.006 0.0815,0.009 0.18888,0.17656 0.0893,0.13903 0.11901,0.17083 0.12455,0.13334 0.004,-0.0271 -0.032,-0.12711 -0.0799,-0.22233 -0.14083,-0.27964 -0.11488,-0.42138 0.0772,-0.42138 0.0801,0 0.13635,0.0408 0.20911,0.15189 0.0218,0.0333 0.0602,0.0606 0.0853,0.0606 0.10305,0 0.27847,0.28138 0.27966,0.44859 6.5e-4,0.0959 0.0328,0.16581 0.0525,0.11412 0.007,-0.0173 -0.0142,-0.11648 -0.0461,-0.22037 -0.0665,-0.21638 -0.0811,-0.43439 -0.0328,-0.49251 0.0535,-0.0644 0.16256,-0.0479 0.24656,0.0373 0.0412,0.0418 0.10679,0.0923 0.14575,0.11215 0.0475,0.0242 0.0963,0.0863 0.14816,0.18856 0.0425,0.0839 0.0898,0.16014 0.10499,0.16954 0.0157,0.01 0.0617,-0.0128 0.10647,-0.0521 0.0874,-0.0768 0.13994,-0.0857 0.20841,-0.0357 0.0639,0.0467 0.0544,0.20229 -0.023,0.37739 -0.0856,0.19351 -0.0761,0.20712 0.0322,0.0463 0.10705,-0.15898 0.20476,-0.2683 0.23982,-0.2683 0.0524,0 0.11554,0.0512 0.11554,0.0936 0,0.0353 -0.20457,0.33429 -0.38685,0.56545 -0.0454,0.0576 0.0797,-0.0176 0.18287,-0.1099 0.15195,-0.13591 0.30778,-0.18226 0.37768,-0.11235 0.0474,0.0474 0.064,0.0453 0.18394,-0.0233 0.11943,-0.0683 0.17816,-0.0736 0.25097,-0.0225 0.0663,0.0464 0.0694,0.15951 0.007,0.26146 l -0.0451,0.0739 0.15466,-0.0353 c 0.21151,-0.0482 0.34572,-0.0217 0.35632,0.0704 0.005,0.0471 0.0207,0.0649 0.0554,0.0649 0.0264,0 0.0761,0.015 0.11058,0.0333 0.0345,0.0183 0.10251,0.0507 0.1512,0.0719 0.0616,0.0269 0.0885,0.0536 0.0885,0.0878 0,0.0451 0.009,0.0479 0.11344,0.0341 0.10419,-0.0138 0.11889,-0.009 0.18019,0.0546 0.0446,0.0465 0.0626,0.0856 0.0542,0.11747 -0.0116,0.0442 -0.004,0.0468 0.0972,0.0348 0.0603,-0.007 0.12325,-0.0172 0.13978,-0.0223 0.0553,-0.0171 0.12571,0.0786 0.10844,0.14738 -0.0137,0.0545 -0.01,0.0603 0.0292,0.0453 0.0247,-0.009 0.1511,-0.023 0.28095,-0.03 0.26249,-0.0141 0.36596,0.01 0.36596,0.085 0,0.0256 0.0144,0.0551 0.032,0.0655 0.0462,0.0273 0.0861,0.11241 0.0861,0.18367 0,0.10776 -0.0879,0.16732 -0.29146,0.1976 -0.2222,0.0331 -0.66492,0.0349 -0.93417,0.004 -0.17687,-0.0203 -0.24659,-0.0149 -0.63747,0.0498 -0.28854,0.0477 -0.55133,0.0757 -0.76715,0.0818 -0.18055,0.005 -0.36356,0.022 -0.40668,0.0376 -0.0917,0.0332 -0.12502,0.0124 -0.0844,-0.0526 0.0345,-0.0553 0.0391,-0.0548 -0.2201,-0.0232 -0.10355,0.0127 -0.45388,0.0394 -0.77851,0.0595 -0.32464,0.0201 -0.62467,0.0428 -0.66674,0.0504 -0.0583,0.0106 -0.0801,0.005 -0.0917,-0.0257 -0.0228,-0.0594 0.0146,-0.0822 0.18617,-0.11389 0.0857,-0.0158 0.15628,-0.0367 0.15687,-0.0463 5.5e-4,-0.01 -0.005,-0.0475 -0.0122,-0.0841 -0.0115,-0.0577 -0.0223,-0.0652 -0.0813,-0.0566 -0.0374,0.006 -0.0803,0.0248 -0.0953,0.0428 -0.055,0.0662 -0.23397,0.0178 -0.23397,-0.0633 0,-0.0426 -0.0526,-0.021 -0.14806,0.0607 -0.0531,0.0454 -0.12056,0.0826 -0.14992,0.0826 -0.0294,0 -0.06,0.0106 -0.068,0.0236 -0.008,0.013 -0.0561,0.0236 -0.10694,0.0236 -0.0749,0 -0.10208,-0.0132 -0.14389,-0.0697 -0.0408,-0.0552 -0.0603,-0.065 -0.0936,-0.0472 -0.0633,0.0339 -0.17726,0.027 -0.21015,-0.0126 -0.0252,-0.0303 -0.0378,-0.0258 -0.093,0.0333 -0.0629,0.0674 -0.24979,0.12075 -0.30441,0.087 -0.0125,-0.008 -0.0627,0.003 -0.11157,0.023 -0.0537,0.0224 -0.13635,0.034 -0.2091,0.0294 -0.11566,-0.008 -0.12158,-0.005 -0.15372,0.0682 -0.0293,0.0666 -0.073,0.0933 -0.35415,0.21632 -0.34401,0.15059 -0.47567,0.18437 -0.57357,0.14715 -0.071,-0.027 -0.1029,-0.10092 -0.0693,-0.16089 0.0198,-0.0353 0.005,-0.0987 -0.0328,-0.14435 -0.003,-0.004 -0.1056,0.0262 -0.22701,0.0673 -0.26784,0.0908 -0.54615,0.10968 -0.59695,0.0405 -0.0222,-0.0302 -0.0646,-0.0416 -0.15761,-0.0423 -0.07,-5.5e-4 -0.16709,-0.0152 -0.21579,-0.0326 -0.0853,-0.0304 -0.0885,-0.0297 -0.0885,0.021 0,0.065 -0.06918,0.13073 -0.137613,0.13073 -0.0282,0 -0.05126,0.0106 -0.05126,0.0236 0,0.0482 -0.07746,0.0208 -0.216484,-0.0767 -0.07869,-0.0552 -0.174504,-0.11691 -0.21293,-0.13717 -0.03842,-0.0203 -0.07938,-0.0521 -0.09101,-0.0708 -0.01737,-0.0279 -0.03236,-0.0228 -0.0839,0.0286 l -0.06276,0.0626 0.06465,0.0848 c 0.111682,0.14643 0.02729,0.21938 -0.08744,0.0756 -0.05743,-0.072 -0.07366,-0.0792 -0.1536,-0.0685 -0.07051,0.01 -0.09884,0.001 -0.134223,-0.0376 -0.05673,-0.0627 -0.09458,-0.0647 -0.05602,-0.003 0.02228,0.0357 0.02262,0.0531 0.0014,0.0743 -0.0311,0.0311 -0.107957,-0.009 -0.227778,-0.11812 l -0.06779,-0.0619 0.03971,0.0783 c 0.04693,0.0926 0.04098,0.16656 -0.01628,0.20245 -0.05628,0.0353 -0.10671,0.001 -0.194782,-0.13073 -0.03896,-0.0585 -0.09662,-0.11869 -0.128137,-0.13383 -0.0663,-0.0319 -0.104271,-0.0122 -0.04284,0.0221 0.02262,0.0127 0.04112,0.0426 0.04112,0.0666 0,0.0387 -0.02155,0.0437 -0.192068,0.0448 -0.105642,6.5e-4 -0.2323,-0.0126 -0.281458,-0.0295 -0.08248,-0.0284 -0.09031,-0.0273 -0.101355,0.015 -0.0092,0.0352 -0.03009,0.0446 -0.0904,0.0405 -0.04314,-0.003 -0.09789,0.003 -0.121671,0.0131 -0.06881,0.0292 -0.370389,-0.003 -0.503936,-0.0539 -0.0672,-0.0256 -0.149605,-0.0412 -0.183112,-0.0348 -0.03351,0.006 -0.07582,-7.5e-4 -0.09404,-0.0158 -0.03671,-0.0305 -0.580475,-0.009 -0.580475,0.0229 0,0.0388 -0.08051,0.0449 -0.148087,0.0112 -0.09738,-0.0486 -0.152754,-0.0449 -0.170602,0.0113 -0.0082,0.0259 -0.03094,0.0631 -0.0505,0.0826 -0.04011,0.0401 -0.163382,0.048 -0.185703,0.0119 -0.0081,-0.013 -0.04209,-0.0168 -0.07564,-0.008 -0.05707,0.0143 -0.05993,0.0111 -0.04449,-0.0504 0.01621,-0.0646 0.015,-0.0655 -0.07034,-0.0516 -0.04776,0.008 -0.104953,0.0305 -0.127091,0.0505 -0.04656,0.0421 -0.156134,0.0485 -0.179659,0.0104 -0.02296,-0.0371 -0.141696,-0.008 -0.198478,0.0489 -0.05134,0.0513 -0.184847,0.0648 -0.257422,0.026 -0.02435,-0.013 -0.184636,-0.0149 -0.393503,-0.005 -0.261275,0.0128 -0.373891,0.01 -0.435461,-0.0124 -0.121683,-0.0435 -0.189293,-0.0399 -0.189293,0.0102 0,0.10367 -0.153846,0.19908 -0.20017,0.12413 z m 6.669319,-0.40221 c 0,-0.013 -0.0113,-0.0236 -0.025,-0.0236 -0.01375,0 -0.01843,0.0106 -0.01041,0.0236 0.008,0.013 0.01928,0.0236 0.025,0.0236 0.006,0 0.0104,-0.0106 0.0104,-0.0236 z m 6.11499,-0.15346 c 0,-0.0207 -0.0215,-0.0354 -0.0517,-0.0354 -0.0506,0 -0.0507,7.4e-4 -0.006,0.0347 0.0575,0.0435 0.0576,0.0435 0.0576,7.4e-4 z m -14.378501,-0.02 c 0,-0.004 -0.0239,-0.0284 -0.05312,-0.0531 l -0.05312,-0.045 0.04498,0.0531 c 0.04227,0.0499 0.06127,0.0639 0.06127,0.045 z m 0.26659,-0.16303 c -0.02811,-0.0483 -0.06614,-0.0791 -0.102516,-0.0832 -0.05305,-0.006 -0.05019,4.7e-4 0.03464,0.0767 0.05086,0.0457 0.09699,0.0832 0.102517,0.0832 0.0055,0 -0.01006,-0.0345 -0.03464,-0.0767 z m 0.93964,-0.34429 c -0.02459,-0.046 -0.09656,-0.11347 -0.09656,-0.0906 0,0.0424 0.05962,0.13386 0.08726,0.13386 0.02415,0 0.02653,-0.0111 0.0093,-0.0433 z m 2.240833,-0.3536 c 0,-0.0105 -0.0156,-0.0397 -0.03466,-0.0649 -0.03539,-0.0468 -0.04765,-0.0206 -0.02184,0.0467 0.01481,0.0386 0.0565,0.052 0.0565,0.0182 z m -1.879918,-0.18866 c 0.0064,-0.0104 -0.0089,-0.0317 -0.03402,-0.0474 -0.04955,-0.031 -0.05309,-0.0277 -0.03136,0.029 0.01543,0.0402 0.04652,0.049 0.06538,0.0185 z m -6.236026,-20.00448 c 0.07542,-0.13251 0.04184,-0.18911 -0.07604,-0.12815 -0.03934,0.0203 -0.07152,0.0404 -0.07152,0.0447 0,0.0418 0.05795,0.15635 0.07904,0.15623 0.01496,0 0.0458,-0.0328 0.06852,-0.0727 z m 23.031082,-7.94517 c -0.008,-0.008 -0.0282,-0.009 -0.0452,-0.002 -0.0188,0.008 -0.0132,0.0131 0.0143,0.0143 0.0249,10e-4 0.0388,-0.005 0.031,-0.0124 z"
       style="fill:#000000;stroke-width:0.0177075"
        />
  </g>
</svg>
