

<svg
   width="33.866806mm"
   height="41.702351mm"
   viewBox="0 0 33.866806 41.702351"
   version="1.1"
   inkscape:version="1.1.2 (0a00cf5339, 2022-02-04)"
   sodipodi:docname="tree-2.svg"
   xmlns:inkscape="http://www.inkscape.org/namespaces/inkscape"
   xmlns:sodipodi="http://sodipodi.sourceforge.net/DTD/sodipodi-0.dtd"
   xmlns="http://www.w3.org/2000/svg"
   xmlns:svg="http://www.w3.org/2000/svg">
  <sodipodi:namedview
     pagecolor="#ffffff"
     bordercolor="#666666"
     borderopacity="1.0"
     inkscape:pageshadow="2"
     inkscape:pageopacity="0.0"
     inkscape:pagecheckerboard="0"
     inkscape:document-units="mm"
     showgrid="false"
     fit-margin-top="0"
     fit-margin-left="0"
     fit-margin-right="0"
     fit-margin-bottom="0"
     inkscape:zoom="0.57370932"
     inkscape:cx="-182.14799"
     inkscape:cy="540.34333"
     inkscape:window-width="1920"
     inkscape:window-height="1051"
     inkscape:window-x="900"
     inkscape:window-y="900"
     inkscape:window-maximized="1"
     inkscape:current-layer="layer1" />
  <defs
      />
  <g
     inkscape:label="Layer 1"
     inkscape:groupmode="layer"
     transform="translate(-5.982866,68.408943)">
    <path
       d="m 20.504777,-27.125331 c 0.665959,-1.31571 0.973893,-2.19424 1.119506,-3.193936 0.05174,-0.355239 0.05861,-1.097347 0.02418,-2.612652 -0.01565,-0.688769 -0.01322,-1.309034 0.008,-2.050119 0.07991,-2.78532 -0.134274,-3.761513 -1.472842,-6.71289 -0.356364,-0.78574 -0.588336,-1.346669 -0.816794,-1.975114 -0.198536,-0.546128 -0.193883,-0.53676 -0.231576,-0.466327 -0.01595,0.02981 -0.08583,0.09911 -0.155273,0.154006 -0.09677,0.07649 -0.14832,0.09981 -0.220655,0.09981 -0.101582,0 -0.212967,-0.06911 -0.237881,-0.14761 -0.01344,-0.04233 -0.03177,-0.03758 -0.21411,0.05559 -0.251292,0.12839 -0.429577,0.142342 -0.536972,0.04202 -0.06473,-0.06046 -0.06667,-0.07024 -0.05932,-0.300017 0.0057,-0.176679 -0.0026,-0.260606 -0.03238,-0.327683 -0.02199,-0.04959 -0.04746,-0.124189 -0.05659,-0.165773 -0.01565,-0.07127 -0.02465,-0.07628 -0.156982,-0.08725 -0.118986,-0.0099 -0.151304,-0.02387 -0.212088,-0.0919 -0.03944,-0.04415 -0.07833,-0.113379 -0.08643,-0.153856 -0.0081,-0.04048 -0.02073,-0.07359 -0.02808,-0.07359 -0.0074,0 -0.07866,0.06228 -0.158465,0.138401 -0.158296,0.15099 -0.274265,0.211619 -0.404776,0.211619 -0.08402,0 -0.167187,-0.06062 -0.167187,-0.121859 0,-0.02125 -0.0265,-0.02544 -0.08792,-0.01392 -0.102708,0.01927 -0.227476,-0.02454 -0.263936,-0.09266 -0.01665,-0.03112 -0.05256,-0.04657 -0.108201,-0.04657 -0.07872,0 -0.08617,0.0079 -0.136178,0.1451 -0.124927,0.342616 -0.33578,0.529939 -0.596507,0.529939 -0.189584,0 -0.268724,-0.04788 -0.319359,-0.193227 -0.04918,-0.141169 -0.161554,-0.362651 -0.19548,-0.385264 -0.01317,-0.0088 -0.05792,0.02273 -0.09945,0.07003 -0.145575,0.165798 -0.35342,0.215668 -0.487056,0.116866 -0.03879,-0.02868 -0.105437,-0.05981 -0.148099,-0.06918 -0.04266,-0.0094 -0.128036,-0.04904 -0.189716,-0.08816 -0.134918,-0.08556 -0.226451,-0.256452 -0.271467,-0.506831 -0.02846,-0.158294 -0.03513,-0.169826 -0.113139,-0.195569 -0.101492,-0.0335 -0.170694,-0.117963 -0.22736,-0.277516 l -0.04306,-0.121245 h -0.117437 c -0.102065,0 -0.124459,0.0099 -0.171087,0.07535 -0.02951,0.04143 -0.10502,0.114564 -0.167808,0.16251 -0.150481,0.114902 -0.238736,0.115424 -0.34002,0.002 l -0.07605,-0.08515 -0.131706,0.07433 c -0.180934,0.102112 -0.371445,0.121259 -0.465492,0.04679 -0.06275,-0.04969 -0.06874,-0.06903 -0.06858,-0.221388 3.44e-4,-0.144229 0.06184,-0.477801 0.112631,-0.60909 0.01323,-0.03419 -0.0013,-0.0436 -0.07702,-0.05 -0.06705,-0.0057 -0.107603,-0.0271 -0.144064,-0.07613 -0.04952,-0.06661 -0.04975,-0.07285 -0.0093,-0.259357 0.02281,-0.105107 0.0772,-0.268612 0.120858,-0.363344 0.04367,-0.09473 0.07375,-0.177877 0.06685,-0.184779 -0.0069,-0.0069 -0.07738,0.01714 -0.156627,0.05343 -0.190987,0.08743 -0.44372,0.110467 -0.514023,0.04685 -0.07355,-0.06656 -0.06439,-0.203904 0.02277,-0.341339 0.04848,-0.07644 0.06509,-0.125438 0.05039,-0.148653 -0.01206,-0.01905 -0.0221,-0.06362 -0.02231,-0.09905 -3.45e-4,-0.05769 -0.0084,-0.06324 -0.07749,-0.05311 -0.05288,0.0078 -0.0997,-0.0054 -0.148998,-0.04183 -0.03954,-0.02923 -0.09403,-0.05315 -0.121087,-0.05315 -0.06613,0 -0.156947,-0.119979 -0.147741,-0.195178 0.0063,-0.05108 -0.0097,-0.06686 -0.102524,-0.101415 -0.14239,-0.053 -0.213502,-0.148537 -0.214398,-0.288006 -3.83e-4,-0.05927 -0.01337,-0.123549 -0.02888,-0.142852 -0.0155,-0.0193 -0.03676,-0.06322 -0.04723,-0.0976 -0.01047,-0.03438 -0.0456,-0.08728 -0.07806,-0.117561 -0.069515,-0.06484 -0.078939,-0.196439 -0.02196,-0.306625 0.03429,-0.06631 0.0324,-0.0819 -0.02525,-0.207824 -0.03428,-0.07488 -0.076001,-0.222073 -0.09271,-0.3271 -0.022446,-0.141068 -0.040339,-0.190981 -0.068497,-0.191045 -0.1189097,-3.94e-4 -0.2761654,-0.170813 -0.3262586,-0.353789 -0.024231,-0.08849 -0.029141,-0.09166 -0.1559535,-0.100756 -0.1288929,-0.0093 -0.1326431,-0.0075 -0.2400903,0.110757 -0.060031,0.06608 -0.1582558,0.148928 -0.2182766,0.184104 -0.1378378,0.08078 -0.2316593,0.06486 -0.3314776,-0.05624 l -0.07182,-0.08713 -0.094578,0.06418 c -0.1043984,0.07084 -0.3081081,0.138945 -0.4156285,0.138945 -0.1951847,0 -0.2617652,-0.10937 -0.2364721,-0.388462 0.015167,-0.167393 0.081845,-0.476536 0.1278654,-0.592845 0.013876,-0.03507 0.00406,-0.04375 -0.049513,-0.04375 -0.1413905,0 -0.2365242,-0.09024 -0.2377468,-0.225513 -0.00111,-0.124483 0.087074,-0.42691 0.1757081,-0.602493 0.041377,-0.08197 0.06923,-0.158752 0.061889,-0.170625 -0.00734,-0.01187 -0.092776,0.01179 -0.1898582,0.05258 -0.1081938,0.04546 -0.2419891,0.07965 -0.3456618,0.08834 -0.1625407,0.01363 -0.1712672,0.01148 -0.2235234,-0.05495 -0.077033,-0.09793 -0.068372,-0.204607 0.029842,-0.367712 0.055278,-0.09179 0.076894,-0.151441 0.062886,-0.17354 -0.011733,-0.01852 -0.021512,-0.06461 -0.02172,-0.102423 -3.445e-4,-0.06308 -0.00836,-0.06875 -0.097016,-0.06875 -0.058777,0 -0.1215383,-0.01959 -0.1602038,-0.05 -0.034964,-0.0275 -0.08648,-0.05 -0.1144857,-0.05 -0.028002,0 -0.081938,-0.02669 -0.1198573,-0.0593 -0.053034,-0.04562 -0.068352,-0.08017 -0.066379,-0.149714 0.00236,-0.08413 -0.00398,-0.09217 -0.0917,-0.115792 -0.1882918,-0.05071 -0.2911971,-0.190148 -0.2705882,-0.36667 0.00779,-0.06675 -0.00188,-0.105251 -0.034704,-0.138069 -0.025029,-0.02503 -0.045506,-0.06628 -0.045506,-0.09168 0,-0.02539 -0.039377,-0.08671 -0.087505,-0.136267 -0.111819,-0.115137 -0.1154546,-0.21373 -0.013793,-0.374037 0.071257,-0.112359 0.223954,-0.218573 0.3142301,-0.218573 0.036255,0 0.036346,-0.0051 0.00101,-0.05557 -0.063459,-0.0906 -0.048829,-0.223268 0.037815,-0.342877 0.086241,-0.11905 0.2631958,-0.212417 0.3722473,-0.196411 0.062309,0.0091 0.0709,3.15e-4 0.097961,-0.100867 0.018109,-0.06771 0.065177,-0.146123 0.1208647,-0.201363 0.07531,-0.0747 0.090155,-0.106049 0.085133,-0.179806 -0.00518,-0.07616 0.00982,-0.104851 0.1017698,-0.194586 0.059316,-0.05789 0.1697252,-0.146979 0.2453545,-0.197982 0.075629,-0.051 0.2078312,-0.157134 0.2937841,-0.235851 0.085956,-0.07872 0.2358609,-0.187069 0.3331305,-0.240779 l 0.176847,-0.09766 -0.087588,-0.05413 c -0.1028149,-0.06354 -0.191143,-0.229033 -0.191143,-0.358121 0,-0.07547 -0.013782,-0.09859 -0.085026,-0.142621 -0.09752,-0.06027 -0.1149858,-0.09425 -0.1149858,-0.223695 0,-0.124262 0.099627,-0.276146 0.3094798,-0.47182 l 0.1677909,-0.156451 -0.065254,-0.02481 c -0.035888,-0.01365 -0.074081,-0.02481 -0.084873,-0.02481 -0.059715,0 -0.224263,-0.156392 -0.2609041,-0.247972 -0.049978,-0.124901 -0.053392,-0.324746 -0.00742,-0.43412 0.035797,-0.08517 0.141338,-0.20711 0.2349998,-0.271523 0.049857,-0.03429 0.053201,-0.0476 0.029227,-0.116371 -0.061069,-0.175184 0.098613,-0.587545 0.2874368,-0.742273 0.05867,-0.04807 0.178764,-0.121916 0.2668767,-0.164089 0.088113,-0.04217 0.2148805,-0.115378 0.2817108,-0.162676 0.066823,-0.0473 0.1765172,-0.105541 0.2437642,-0.129424 0.1382233,-0.04909 0.1507031,-0.06913 0.0576,-0.0925 -0.1078535,-0.02707 -0.185358,-0.124285 -0.185358,-0.232503 0,-0.137824 0.047992,-0.188424 0.2674045,-0.281926 0.1073187,-0.04574 0.206505,-0.09663 0.220419,-0.113111 0.075122,-0.08897 0.5876523,-0.285749 0.8382613,-0.321845 0.06243,-0.009 0.167791,-0.04383 0.234131,-0.07741 0.06634,-0.03359 0.185494,-0.07383 0.26479,-0.08943 l 0.144178,-0.02836 -0.0069,-0.110413 c -0.0095,-0.150831 -0.04422,-0.185347 -0.181285,-0.180163 -0.08454,0.0032 -0.121438,-0.0074 -0.14688,-0.0422 -0.04609,-0.06303 -0.0427,-0.138401 0.0096,-0.212606 0.02395,-0.034 0.06051,-0.09557 0.08125,-0.136821 0.03457,-0.06875 0.05078,-0.07605 0.194223,-0.08751 0.149162,-0.01191 0.158544,-0.0166 0.200012,-0.100006 0.03062,-0.06158 0.06459,-0.09121 0.114663,-0.100005 0.05636,-0.0099 0.07818,-0.03331 0.104923,-0.112507 0.04348,-0.128799 0.209373,-0.27754 0.359138,-0.322015 0.06397,-0.019 0.159708,-0.06399 0.212752,-0.09999 0.127025,-0.0862 0.275127,-0.124104 0.418723,-0.107152 0.08354,0.0099 0.120208,0.0044 0.129243,-0.0191 0.0069,-0.01807 0.06363,-0.05756 0.125976,-0.08774 0.06236,-0.03018 0.119754,-0.07499 0.127556,-0.09957 0.02522,-0.07947 0.184313,-0.216756 0.319192,-0.275444 0.0723,-0.03146 0.148332,-0.06746 0.168958,-0.07999 0.142255,-0.08646 0.275238,-0.130855 0.388825,-0.129792 0.143536,0.0014 0.201262,0.02679 0.335224,0.147821 l 0.09459,0.08545 0.109465,-0.05178 c 0.0602,-0.02848 0.154464,-0.07893 0.209467,-0.112111 0.055,-0.03318 0.11833,-0.06051 0.140727,-0.06074 0.0224,-3.45e-4 0.05486,-0.03455 0.07214,-0.07626 0.03825,-0.09234 0.12648,-0.1651 0.226958,-0.187167 0.04122,-0.0091 0.103943,-0.04333 0.13938,-0.07617 0.09163,-0.08492 0.219002,-0.102666 0.364927,-0.05084 l 0.120208,0.04269 0.115143,-0.10135 c 0.06333,-0.05574 0.124972,-0.101349 0.136997,-0.101349 0.01202,0 0.0836,-0.03484 0.159047,-0.07742 l 0.137181,-0.07743 -0.07506,-0.07011 c -0.07455,-0.06964 -0.0963,-0.165607 -0.05936,-0.261877 0.02059,-0.05364 0.41425,-0.250459 0.609599,-0.304774 0.135115,-0.03757 0.159224,-0.05399 0.201844,-0.13754 0.02662,-0.05218 0.08216,-0.112332 0.123407,-0.133664 0.07493,-0.03875 0.07496,-0.03887 0.03369,-0.118687 -0.09837,-0.190226 -0.0166,-0.523787 0.147491,-0.60165 0.04862,-0.02307 0.105732,-0.04195 0.126903,-0.04195 0.02117,0 0.04545,-0.01125 0.05395,-0.025 0.0085,-0.01375 0.04158,-0.025 0.07351,-0.025 0.03666,0 0.08199,-0.03136 0.122976,-0.08511 0.06278,-0.0823 0.27289,-0.18308 0.478552,-0.229531 0.04125,-0.0093 0.09839,-0.03812 0.126979,-0.064 0.02859,-0.02588 0.112934,-0.0666 0.187431,-0.09047 l 0.135456,-0.04341 0.01867,-0.150009 c 0.02821,-0.22661 0.129851,-0.336693 0.369837,-0.400558 0.220256,-0.05862 0.371237,-0.0485 0.500557,0.03355 0.06113,0.03879 0.139276,0.11184 0.173653,0.162339 0.05358,0.07871 0.07613,0.09185 0.157873,0.09199 0.07444,3.44e-4 0.108625,-0.01559 0.155752,-0.07159 0.03321,-0.03947 0.09155,-0.08502 0.129647,-0.101235 0.03809,-0.01621 0.09883,-0.07805 0.134983,-0.137429 0.11441,-0.187931 0.480657,-0.318789 0.671258,-0.23984 0.07256,0.03006 0.218561,0.172479 0.268755,0.262172 0.0368,0.06576 0.129577,0.02457 0.171697,-0.07624 0.05872,-0.140515 0.279663,-0.212613 0.371161,-0.121115 0.02177,0.02177 0.05914,0.106135 0.08304,0.187477 0.03917,0.133292 0.05013,0.147897 0.111013,0.147928 0.05258,0 0.08548,-0.02628 0.148474,-0.118722 0.265675,-0.389873 0.398489,-0.45777 0.572294,-0.292548 l 0.06328,0.06015 0.14273,-0.05801 c 0.104437,-0.04245 0.165708,-0.0881 0.228382,-0.17019 0.14672,-0.192154 0.268838,-0.241729 0.363143,-0.147425 0.04769,0.04769 0.04871,0.04758 0.08552,-0.0086 0.139185,-0.212429 0.315855,-0.278128 0.407947,-0.151707 l 0.04587,0.06298 0.099,-0.05047 c 0.05445,-0.02776 0.135716,-0.05048 0.180583,-0.05048 0.06517,0 0.0893,-0.01493 0.119979,-0.07426 0.04854,-0.09386 0.108201,-0.125747 0.235277,-0.125747 0.116331,0 0.165941,0.04286 0.280045,0.241955 0.05805,0.10128 0.0917,0.133233 0.154648,0.146866 0.04425,0.0096 0.114065,0.04133 0.155141,0.07056 0.107933,0.0768 0.268713,0.145245 0.288003,0.122601 0.0091,-0.0107 0.03591,-0.07204 0.05955,-0.13631 0.07087,-0.192695 0.177795,-0.317709 0.332214,-0.388408 0.121274,-0.05552 0.163065,-0.06196 0.33687,-0.0519 0.224391,0.01299 0.305448,0.05517 0.377474,0.196421 0.05385,0.105604 0.05645,0.311387 0.0063,0.498252 -0.0203,0.07563 -0.03704,0.13922 -0.0372,0.14131 -3.94e-4,0.0021 0.05314,-0.01247 0.118458,-0.03235 0.07634,-0.02324 0.161554,-0.03041 0.23857,-0.02006 0.163009,0.02189 0.203501,0.08425 0.181381,0.279329 l -0.01636,0.144303 0.0951,0.05004 c 0.06693,0.03522 0.103457,0.07595 0.123319,0.137508 0.01693,0.05247 0.04695,0.09061 0.07501,0.09532 0.153213,0.02572 0.303465,0.09266 0.361893,0.161218 l 0.06511,0.07639 0.147915,-0.0291 c 0.121916,-0.02399 0.174187,-0.02234 0.297417,0.0094 0.244666,0.06301 0.37031,0.136247 0.402019,0.234354 0.02674,0.08276 0.03139,0.0852 0.169323,0.08932 0.078,0.0023 0.155071,0.01748 0.17126,0.03367 0.01619,0.01619 0.04688,0.02968 0.06819,0.02998 0.02131,3.45e-4 0.08938,0.02395 0.151259,0.05254 0.06188,0.0286 0.153404,0.05434 0.203397,0.0572 0.04998,0.0029 0.119907,0.02423 0.155377,0.04747 0.03547,0.02324 0.08699,0.04226 0.114503,0.04226 0.02751,0 0.08697,0.03208 0.132137,0.07129 0.05058,0.0439 0.125337,0.078 0.194632,0.08877 0.06188,0.0096 0.135008,0.03209 0.16251,0.04995 0.0275,0.01785 0.09133,0.04014 0.141844,0.04951 0.172021,0.03193 0.300171,0.249316 0.26136,0.443366 -0.02165,0.108239 0.105315,0.257327 0.264845,0.311001 0.123049,0.04139 0.244504,0.15771 0.244504,0.234145 0,0.0303 0.03329,0.05401 0.106256,0.07566 0.259411,0.07697 0.896969,0.395617 0.912814,0.456214 0.01,0.03817 0.02661,0.04545 0.07574,0.03312 0.09439,-0.02369 0.197957,0.03014 0.228931,0.11899 0.02431,0.06973 0.02112,0.145286 -0.01318,0.312258 -0.01085,0.05287 -0.0053,0.05563 0.08334,0.04145 0.134827,-0.02156 0.206977,0.04185 0.224499,0.197293 0.0106,0.09408 0.02165,0.115895 0.05377,0.106214 0.08733,-0.02631 0.371702,-0.06371 0.485844,-0.06389 0.144165,-3.45e-4 0.206446,0.02887 0.225659,0.105405 0.01248,0.04974 0.03006,0.05691 0.139487,0.05691 0.143301,0 0.201481,0.04175 0.209846,0.150596 0.0045,0.05913 0.0205,0.07512 0.09258,0.0927 0.16935,0.0413 0.221002,0.07294 0.248674,0.152332 0.02417,0.06933 0.0193,0.0898 -0.04216,0.177249 -0.03822,0.05438 -0.138852,0.155864 -0.223638,0.225524 -0.08478,0.06966 -0.155082,0.133792 -0.156228,0.142526 -0.0011,0.0087 0.05709,0.02326 0.129393,0.0323 0.158031,0.01974 0.183049,0.03346 0.215189,0.117993 0.02126,0.05593 0.04456,0.06761 0.16473,0.08263 0.109384,0.01367 0.148633,0.03072 0.179656,0.07806 0.05444,0.0831 0.02714,0.247282 -0.06536,0.393155 -0.104865,0.165347 -0.08018,0.238587 0.09554,0.283558 0.193545,0.04953 0.228832,0.07438 0.228832,0.161124 0,0.106316 -0.06107,0.211992 -0.216929,0.375397 -0.160575,0.16835 -0.130292,0.215332 0.06182,0.09591 0.176514,-0.109729 0.444821,-0.197275 0.606479,-0.197887 0.155575,-5.9e-4 0.365911,0.08743 0.44295,0.185372 0.02445,0.03108 0.08918,0.07094 0.143849,0.08857 0.05467,0.01763 0.113462,0.04322 0.13065,0.05686 0.02282,0.01812 0.03125,0.0115 0.03125,-0.02453 0,-0.121337 0.05098,-0.195459 0.174861,-0.254275 l 0.123927,-0.05884 0.21118,0.0687 c 0.167128,0.05436 0.214081,0.08024 0.225075,0.124063 0.01074,0.04278 0.05522,0.06892 0.195709,0.11501 0.1,0.0328 0.195436,0.06941 0.212083,0.08134 0.01664,0.01194 0.07571,0.139362 0.131257,0.283165 0.121171,0.313703 0.13332,0.479223 0.04473,0.60931 -0.05574,0.08186 -0.09047,0.108586 -0.17501,0.134713 -0.0333,0.01029 -0.04375,0.04077 -0.04375,0.127611 0,0.06275 -0.01742,0.155794 -0.03872,0.206759 -0.02129,0.05096 -0.03233,0.118104 -0.02452,0.149206 0.01207,0.04809 0.03077,0.05654 0.125046,0.05654 0.201303,0 0.30007,0.08272 0.333651,0.279436 l 0.01732,0.101423 0.212388,0.0033 0.212387,0.0033 -0.0012,0.113148 -0.0012,0.11315 0.08612,-0.01005 c 0.13026,-0.01521 0.339502,0.04028 0.401745,0.106542 0.03007,0.03201 0.06328,0.09061 0.0738,0.130222 0.01698,0.06397 0.03551,0.07529 0.165618,0.101264 0.08057,0.01608 0.172669,0.04117 0.20466,0.05574 0.06515,0.02968 0.157819,0.166835 0.157964,0.233784 0,0.02896 0.01953,0.04375 0.0576,0.04375 0.06619,0 0.117219,0.04265 0.118149,0.09876 3.94e-4,0.02131 0.05631,0.07651 0.124345,0.122654 0.164589,0.111637 0.441955,0.40944 0.548132,0.58852 0.105339,0.177667 0.21927,0.493563 0.241781,0.670411 0.0093,0.07274 0.04806,0.227884 0.08624,0.344765 0.165832,0.507827 0.102252,0.709706 -0.21004,0.666902 l -0.107628,-0.01475 -0.02841,0.152746 c -0.01562,0.08401 -0.05789,0.197301 -0.09393,0.251757 -0.05652,0.0854 -0.06638,0.129432 -0.07177,0.320299 -0.0054,0.191046 -0.01509,0.234228 -0.07093,0.31597 -0.0886,0.129698 -0.08916,0.146206 -0.01155,0.338707 0.03748,0.09296 0.06815,0.202658 0.06815,0.243765 0,0.07383 -0.0037,0.07641 -0.123237,0.0849 -0.01965,0.0014 -0.04326,0.03069 -0.05246,0.06511 -0.05068,0.189481 -0.173371,0.318835 -0.367097,0.387017 -0.179837,0.06329 -0.18065,0.06404 -0.245195,0.22526 -0.07274,0.181706 -0.241614,0.348304 -0.395287,0.389961 -0.05736,0.01555 -0.117941,0.0321 -0.134612,0.03677 -0.01667,0.0047 -0.06443,0.07609 -0.106134,0.158699 -0.119025,0.235787 -0.255817,0.346057 -0.514027,0.414366 -0.01399,0.0037 -0.08459,0.123997 -0.156887,0.267328 -0.0723,0.143328 -0.166937,0.303649 -0.210311,0.356265 -0.09689,0.117545 -0.245174,0.187937 -0.397429,0.188663 -0.22618,0.0011 -0.368932,-0.08333 -0.451526,-0.266981 l -0.04723,-0.10502 -0.101545,0.110159 c -0.111381,0.120841 -0.111947,0.115375 0.02973,0.287391 0.183403,0.22269 0.323091,0.539823 0.371855,0.844215 0.01263,0.07884 0.05182,0.237438 0.0871,0.352438 0.124553,0.40606 0.0785,0.553454 -0.172898,0.553454 -0.129401,0 -0.137818,0.0038 -0.151148,0.06875 -0.03446,0.167887 -0.06532,0.253937 -0.112611,0.314059 -0.04063,0.05166 -0.05224,0.108593 -0.05804,0.284653 -0.0063,0.191096 -0.01608,0.232891 -0.07423,0.317325 -0.07741,0.112418 -0.0786,0.120088 -0.03234,0.210268 0.06141,0.119705 0.114736,0.302603 0.09968,0.341853 -0.0082,0.02135 -0.04477,0.03818 -0.08302,0.03818 -0.05798,0 -0.07288,0.01503 -0.098,0.09888 -0.01629,0.05438 -0.05688,0.131273 -0.09019,0.170864 -0.06387,0.0759 -0.23017,0.169036 -0.342354,0.191727 -0.05338,0.0108 -0.07481,0.03782 -0.107093,0.135019 -0.07075,0.213023 -0.312508,0.428574 -0.48067,0.428574 -0.03809,0 -0.07153,0.04134 -0.13074,0.161616 -0.08962,0.182042 -0.215687,0.300736 -0.364824,0.343497 -0.055,0.01577 -0.112829,0.0383 -0.128504,0.05007 -0.01568,0.01177 -0.0793,0.125796 -0.141376,0.253386 -0.135154,0.277769 -0.219145,0.383195 -0.354124,0.44451 -0.251537,0.114257 -0.586,-0.0089 -0.630662,-0.232234 -0.0078,-0.03894 -0.01793,-0.07079 -0.02253,-0.07079 -0.0046,0 -0.06055,0.05578 -0.12432,0.123955 -0.152259,0.162773 -0.295704,0.231912 -0.462766,0.223047 l -0.12808,-0.0068 -0.06889,0.177049 c -0.116292,0.298896 -0.207627,0.386752 -0.36183,0.348049 -0.07197,-0.01806 -0.153829,-0.143201 -0.228416,-0.349194 l -0.05441,-0.15027 -0.118725,-0.0069 c -0.0653,-0.0038 -0.145432,-0.0244 -0.178066,-0.04578 -0.06404,-0.04196 -0.159988,-0.209335 -0.159988,-0.279078 0,-0.02874 -0.04496,0.0031 -0.136095,0.09648 -0.166291,0.170323 -0.379373,0.282623 -0.493084,0.259882 -0.09744,-0.01949 -0.145866,-0.05803 -0.145866,-0.116111 0,-0.03752 -0.01572,-0.04245 -0.09953,-0.03121 -0.114593,0.01537 -0.240979,-0.02863 -0.277325,-0.09654 -0.02871,-0.05364 -0.154193,-0.06374 -0.190469,-0.01532 -0.01288,0.01719 -0.05444,0.106105 -0.09236,0.197598 -0.03792,0.09149 -0.107891,0.211863 -0.155505,0.267484 -0.09183,0.10728 -0.401228,0.293227 -0.531133,0.319208 -0.09004,0.01801 -0.106366,0.03648 -0.152025,0.172015 -0.07651,0.227089 -0.296715,0.428191 -0.498512,0.455259 -0.0894,0.01199 -0.100513,0.02282 -0.152801,0.148977 -0.08165,0.197004 -0.255407,0.365404 -0.437282,0.423814 l -0.146397,0.04701 -0.143588,0.283918 c -0.157145,0.310731 -0.25864,0.435878 -0.409424,0.504869 l -0.09866,0.04514 -0.121857,0.395583 c -0.332648,1.079893 -0.682658,1.819074 -1.339071,2.827974 -1.068819,1.642746 -1.118332,1.874562 -0.828808,3.880439 0.09648,0.668481 0.124531,1.22811 0.09774,1.95015 -0.09342,2.517763 -0.111538,4.04061 -0.05399,4.537759 0.05079,0.438709 0.252533,1.781936 0.368928,2.456391 l 0.01403,0.08125 h -2.37153 -2.371527 l 0.211968,-0.418774 z m 4.341311,-13.656895 c 0.151259,-0.140113 0.318012,-0.28683 0.37056,-0.326035 0.05939,-0.04432 0.197719,-0.225956 0.365549,-0.479997 0.177927,-0.269333 0.334085,-0.472792 0.457922,-0.596628 0.18532,-0.185317 0.189191,-0.191849 0.279576,-0.471438 l 0.09166,-0.283517 -0.06921,-0.142476 -0.06921,-0.142478 -0.121135,0.132544 c -0.166323,0.181982 -0.348986,0.269612 -0.530601,0.254552 -0.122291,-0.01014 -0.138465,-0.0058 -0.151748,0.04068 -0.0082,0.02862 -0.06048,0.149738 -0.116218,0.269159 -0.108246,0.23189 -0.17558,0.28943 -0.308879,0.263949 -0.04912,-0.0094 -0.07,3.94e-4 -0.08694,0.0408 -0.0268,0.06388 -0.523847,1.748419 -0.523847,1.775337 0,0.03276 0.12898,-0.0718 0.412524,-0.334451 z m -2.509323,-0.950204 c 0.251088,0 0.602431,-0.358414 0.9291,-0.947807 0.07322,-0.132109 0.08281,-0.166817 0.06161,-0.223104 -0.02386,-0.06338 -0.03238,-0.06624 -0.172853,-0.05815 -0.141147,0.0081 -0.151352,0.0046 -0.228204,-0.07831 -0.06754,-0.07289 -0.0933,-0.08486 -0.160534,-0.0746 -0.0727,0.0111 -0.08607,0.02789 -0.144981,0.182047 -0.138591,0.362693 -0.352089,0.574116 -0.600545,0.594722 -0.11575,0.0096 -0.137269,0.01857 -0.124993,0.05213 0.0082,0.0223 0.06702,0.172703 0.130803,0.334241 0.106147,0.268829 0.119472,0.290531 0.157338,0.256265 0.02377,-0.02151 0.08897,-0.03744 0.153259,-0.03744 z m -2.376499,-1.741505 c -0.01468,-0.05286 -0.02675,-0.138291 -0.02682,-0.189857 0,-0.07469 -0.0096,-0.09376 -0.04666,-0.09376 -0.02558,0 -0.08746,-0.02779 -0.137508,-0.06175 -0.05005,-0.03396 -0.09099,-0.05672 -0.09099,-0.05057 0,0.02536 0.308154,0.512538 0.31798,0.502714 0.0059,-0.0059 -0.0013,-0.05393 -0.016,-0.106783 z m 6.035941,-0.111353 c 0.06185,-0.08401 0.112455,-0.16103 0.112455,-0.171135 0,-0.01011 -0.02028,-0.03673 -0.04507,-0.05916 -0.04194,-0.03796 -0.05156,-0.03637 -0.13873,0.02286 -0.05152,0.035 -0.135304,0.07799 -0.186195,0.09552 -0.07738,0.02665 -0.09383,0.04488 -0.100406,0.111297 -0.0069,0.06919 0.0028,0.08407 0.075,0.115424 0.135202,0.05873 0.163704,0.04716 0.28294,-0.114802 z m -6.4793,-0.61086 c -0.0081,-0.02122 -0.02017,-0.03322 -0.02672,-0.02667 -0.0066,0.0066 -0.0045,0.02392 0.0046,0.03858 0.02465,0.03989 0.03906,0.03214 0.02216,-0.01191 z m 8.703114,-0.542707 c 0.06409,-0.0641 0.08722,-0.115211 0.109568,-0.242117 0.01558,-0.08847 0.02457,-0.164617 0.01999,-0.169206 -0.0046,-0.0046 -0.05783,0.01412 -0.118319,0.04156 -0.06049,0.02744 -0.132546,0.05014 -0.160131,0.05045 -0.03564,3.93e-4 -0.06676,0.03676 -0.107593,0.125776 -0.06369,0.138838 -0.05922,0.157558 0.05421,0.226728 0.102731,0.06264 0.107201,0.06191 0.202273,-0.03319 z m -14.024979,-0.3979 c 0.03785,-0.02977 0.08335,-0.08868 0.101097,-0.130909 0.07374,-0.175366 -0.09943,-0.231675 -0.235587,-0.0766 -0.0861,0.09806 -0.09734,0.163317 -0.03831,0.222357 0.05279,0.0528 0.09098,0.04951 0.172798,-0.01485 z m 3.382819,-0.389788 c -0.04032,-0.04858 -0.06884,0.0063 -0.06932,0.133484 -5.91e-4,0.147896 0.03149,0.157194 0.06665,0.01934 0.02239,-0.08778 0.0231,-0.128199 0.0027,-0.152822 z m 15.105512,-0.63 c 0.100933,-0.135524 0.101263,-0.13668 0.05248,-0.185456 -0.04169,-0.04169 -0.05515,-0.04405 -0.08934,-0.01567 -0.02214,0.01838 -0.09307,0.04682 -0.157623,0.06321 -0.114591,0.0291 -0.117362,0.0321 -0.117362,0.127039 0,0.08879 0.0076,0.09982 0.08751,0.127 0.04813,0.01637 0.09544,0.02762 0.105135,0.025 0.0097,-0.0026 0.06334,-0.06613 0.119204,-0.141125 z m -18.964046,-0.174352 c 0.0079,-0.01276 -0.0089,-0.03059 -0.0374,-0.03963 -0.02846,-0.009 -0.08632,-0.06328 -0.128573,-0.120556 l -0.07682,-0.104134 0.01346,0.107235 c 0.0074,0.05898 0.02709,0.123675 0.04376,0.143758 0.03357,0.04045 0.163075,0.04975 0.185583,0.01332 z m 15.955931,-0.06431 c 0.01614,-0.05172 -0.03093,-0.08083 -0.111299,-0.06881 -0.07957,0.0119 -0.08091,0.01398 -0.03888,0.06041 0.0442,0.04885 0.135945,0.05398 0.150176,0.0084 z M 31.2671,-46.69287 c 0.01248,-0.03253 -0.053,-0.114859 -0.09136,-0.114859 -0.02177,0 -0.02187,0.111588 0,0.133342 0.02833,0.02833 0.07731,0.01843 0.09147,-0.01848 z m -21.175528,-4.148736 c -0.03924,-0.04601 -0.08474,-0.105071 -0.1011278,-0.131257 -0.027158,-0.04341 -0.029912,-0.04114 -0.031252,0.02578 -0.0017,0.085 0.083905,0.189123 0.1554888,0.189123 0.04304,0 0.04055,-0.009 -0.02311,-0.08365 z m -1.7778988,-0.653523 c 0.00661,-0.03458 0.00353,-0.06287 -0.00684,-0.06287 -0.022241,0 -0.049212,0.06359 -0.049212,0.116028 0,0.05749 0.042628,0.01707 0.056049,-0.05315 z M 35.69243,-51.784472 c 0.0321,-0.04583 0.0302,-0.06222 -0.01734,-0.149803 -0.02936,-0.05409 -0.06523,-0.09843 -0.07972,-0.09855 -0.01449,0 -0.06512,0.03999 -0.112506,0.08911 l -0.08616,0.08932 0.07015,0.06069 c 0.0858,0.07424 0.177413,0.07799 0.225576,0.0092 z m 3.34217,-3.892179 0.05407,-0.06873 -0.0831,-0.017 c -0.09663,-0.01976 -0.120215,0.0044 -0.120774,0.123769 -3.94e-4,0.07332 0.0048,0.07937 0.04768,0.05641 0.02644,-0.01415 0.0724,-0.05665 0.102131,-0.09445 z m -22.481924,-8.447244 c 0.06919,-0.01383 0.07661,-0.02506 0.08482,-0.128247 l 0.009,-0.113083 -0.200449,0.01571 c -0.243924,0.01912 -0.390089,0.05637 -0.431713,0.110044 -0.05163,0.06658 -0.03687,0.08063 0.08751,0.08323 0.06532,0.0014 0.146884,0.0115 0.181261,0.02251 0.07993,0.0256 0.173673,0.02902 0.269585,0.0098 z m 2.415984,-2.801076 c 0.0087,-0.02259 0.01084,-0.04601 0.0048,-0.05203 -0.01697,-0.01697 -0.115236,0.04186 -0.115236,0.06899 0,0.04096 0.09371,0.02657 0.11042,-0.01696 z m 6.908109,-0.970574 c 0.02585,-0.104735 0.02477,-0.133042 -0.0069,-0.181396 -0.03612,-0.05513 -0.03997,-0.05571 -0.101656,-0.01529 -0.03526,0.0231 -0.10222,0.0986 -0.1488,0.167759 -0.09922,0.147346 -0.08526,0.169253 0.101742,0.159534 l 0.125007,-0.0065 z"
       style="fill:#000000;stroke-width:0.0187511"
        />
  </g>
</svg>
